<svg width="183" height="210" viewBox="0 0 183 210" fill="none" xmlns="http://www.w3.org/2000/svg">
<path d="M106.094 161.113C129.81 159.805 147.333 158.734 158.665 157.903C175.663 156.655 180.263 163.76 180.492 169.609C180.722 175.458 168.31 184.148 165.746 185.162C163.182 186.177 155.93 183.612 160.649 179.626C165.369 175.639 177.144 166.14 160.649 166.14C149.652 166.14 131.468 171.224 106.094 181.392V161.113Z" fill="white"/>
<path d="M108.599 177.703C132.467 168.33 149.758 163.634 160.649 163.634C166.434 163.634 169.902 164.716 171.198 167.441C172.388 169.948 171.305 172.511 168.857 175.374C167.993 176.386 166.956 177.428 165.728 178.548C165.116 179.104 164.496 179.65 163.866 180.185C163.606 180.409 163.343 180.63 163.018 180.904L162.265 181.539C162.064 181.702 161.88 181.887 161.717 182.088C161.753 182.116 161.794 182.144 161.84 182.175C162.725 182.755 164.342 183.024 164.823 182.834C166.048 182.349 169.688 179.838 172.497 177.33C175.996 174.207 178.051 171.306 177.987 169.707C177.884 167.09 176.746 164.797 174.412 163.136C171.295 160.916 166.182 159.862 158.847 160.401C147.879 161.206 131.131 162.233 108.599 163.483V177.703ZM105.957 158.612C129.658 157.303 147.168 156.235 158.481 155.404C174.344 154.24 182.627 160.136 182.995 169.511C183.137 173.132 180.404 176.989 175.834 181.068C172.623 183.935 168.537 186.753 166.667 187.492C164.55 188.33 161.256 187.784 159.092 186.363C155.889 184.262 155.626 180.589 159.033 177.711L159.79 177.073C160.106 176.807 160.361 176.591 160.611 176.377C161.2 175.875 161.78 175.365 162.352 174.845C163.439 173.854 164.338 172.951 165.049 172.118C166.307 170.647 166.714 169.682 166.671 169.592C166.658 169.564 166.424 169.396 165.748 169.185C164.643 168.841 162.945 168.645 160.649 168.645C150.063 168.645 132.12 173.662 107.025 183.718L103.589 185.093V158.742L105.957 158.612Z" fill="white"/>
<path d="M164.405 182.022C165.471 183.289 166.031 184.905 165.978 186.56C165.926 188.215 165.265 189.792 164.121 190.989L154.351 201.214L154.948 192.171L143.595 196.808L150.257 188.056L143.601 184.915L155.018 179.853C156.606 179.149 158.38 178.98 160.073 179.371C161.766 179.762 163.286 180.692 164.405 182.022Z" fill="white"/>
<path d="M162.298 189.56C163.041 188.834 163.491 187.86 163.56 186.824C163.629 185.788 163.313 184.763 162.672 183.945C161.935 183.004 160.913 182.329 159.759 182.019C158.605 181.71 157.382 181.783 156.274 182.229L149.768 184.846L151.443 185.709C151.775 185.88 152.064 186.123 152.289 186.42C152.515 186.717 152.671 187.061 152.747 187.426C152.823 187.791 152.816 188.169 152.727 188.531C152.639 188.894 152.47 189.232 152.234 189.52L151.086 190.925L153.972 189.862C155.71 189.222 157.517 190.623 157.331 192.465L157.114 194.621L162.298 189.56ZM142.606 186.793C140.7 185.81 140.829 183.042 142.819 182.242L154.403 177.582C156.519 176.731 158.854 176.59 161.056 177.181C163.259 177.771 165.211 179.061 166.617 180.856C168.019 182.646 168.71 184.89 168.559 187.158C168.408 189.426 167.425 191.558 165.798 193.146L155.676 203.023C154.001 204.657 151.2 203.306 151.435 200.978L151.943 195.949L144.197 198.802C141.803 199.684 139.777 196.84 141.392 194.865L146.397 188.746L142.606 186.793Z" fill="white"/>
<path d="M29.6015 145.205L49.4873 151.631L55.0092 167.762C57.7063 175.642 53.5062 184.215 45.627 186.913C44.0551 187.451 42.4048 187.726 40.7431 187.726H33.076C29.2687 187.726 25.5757 186.425 22.6091 184.039C19.6424 181.652 17.5801 178.324 16.764 174.605L13.5167 159.809C12.0337 153.053 16.309 146.373 23.065 144.891C25.2332 144.414 27.4891 144.523 29.6015 145.205Z" fill="white"/>
<path d="M47.5241 153.629L28.8316 147.589C27.1418 147.043 25.3373 146.956 23.6027 147.336C18.1969 148.524 14.7775 153.867 15.964 159.272L19.2114 174.068C19.9053 177.229 21.6583 180.058 24.18 182.086C26.7017 184.114 29.8407 185.22 33.0768 185.22H40.7438C42.13 185.22 43.5052 184.99 44.8162 184.542C51.3861 182.293 54.8889 175.144 52.6403 168.574L47.5241 153.629ZM30.3713 142.822L51.4512 149.633L57.3798 166.952C60.5253 176.14 55.6262 186.138 46.4386 189.282C44.6056 189.91 42.6814 190.231 40.7438 190.231H33.0768C28.6985 190.231 24.4518 188.735 21.0401 185.991C17.6285 183.247 15.2569 179.42 14.3182 175.143L11.07 160.347C9.29062 152.239 14.4201 144.223 22.5281 142.444C25.1297 141.872 27.8367 142.002 30.3713 142.822Z" fill="white"/>
<path d="M28.2746 173.866H44.4354C49.4347 173.866 53.487 177.92 53.487 182.918C53.487 187.916 49.4338 191.969 44.4354 191.969H28.2746C23.2754 191.969 19.2231 187.916 19.2231 182.918C19.2231 177.919 23.2754 173.866 28.2746 173.866Z" fill="white"/>
<path d="M21.7282 182.918C21.7282 184.654 22.4179 186.319 23.6456 187.547C24.8733 188.775 26.5384 189.464 28.2747 189.464H44.4355C46.1717 189.464 47.8368 188.775 49.0645 187.547C50.2922 186.319 50.982 184.654 50.982 182.918C50.982 181.182 50.2922 179.517 49.0645 178.289C47.8368 177.061 46.1717 176.371 44.4355 176.371H28.2747C26.5384 176.371 24.8733 177.061 23.6456 178.289C22.4179 179.517 21.7282 181.182 21.7282 182.918ZM28.2747 171.361H44.4355C50.8183 171.361 55.992 176.535 55.992 182.918C55.992 189.301 50.8175 194.475 44.4355 194.475H28.2747C21.8918 194.475 16.7181 189.3 16.7181 182.918C16.7181 176.536 21.8918 171.361 28.2747 171.361Z" fill="white"/>
<path d="M27.62 183.782V190.456C27.62 191.12 27.884 191.757 28.3538 192.227C28.8235 192.697 29.4607 192.961 30.1251 192.961C30.7895 192.961 31.4266 192.697 31.8964 192.227C32.3662 191.757 32.6301 191.12 32.6301 190.456V183.782C32.6301 183.118 32.3662 182.481 31.8964 182.011C31.4266 181.541 30.7895 181.277 30.1251 181.277C29.4607 181.277 28.8235 181.541 28.3538 182.011C27.884 182.481 27.62 183.118 27.62 183.782Z" fill="white"/>
<path d="M124.971 145.205L105.085 151.631L99.5629 167.762C96.8658 175.642 101.067 184.215 108.945 186.913C110.517 187.451 112.168 187.726 113.83 187.726H121.497C125.304 187.726 128.997 186.425 131.964 184.039C134.931 181.652 136.993 178.324 137.809 174.605L141.056 159.809C142.539 153.053 138.263 146.373 131.508 144.891C129.34 144.414 127.084 144.523 124.971 145.205Z" fill="white"/>
<path d="M125.741 147.589C127.431 147.043 129.236 146.956 130.97 147.336C136.376 148.524 139.795 153.867 138.609 159.272L135.362 174.069C134.668 177.23 132.914 180.059 130.393 182.087C127.871 184.115 124.732 185.221 121.496 185.221H113.829C112.443 185.221 111.067 184.991 109.757 184.543C103.186 182.294 99.6832 175.145 101.932 168.575L107.049 153.629L125.741 147.589ZM124.202 142.822L103.122 149.632L97.1931 166.951C94.0476 176.139 98.9467 186.137 108.135 189.282C109.968 189.91 111.892 190.23 113.83 190.23H121.497C125.875 190.23 130.122 188.734 133.534 185.99C136.945 183.246 139.317 179.419 140.256 175.142L143.503 160.347C145.283 152.239 140.152 144.223 132.045 142.444C129.443 141.872 126.736 142.002 124.202 142.822Z" fill="white"/>
<path d="M126.298 173.866H110.137C105.138 173.866 101.085 177.92 101.085 182.918C101.085 187.916 105.138 191.969 110.137 191.969H126.298C131.297 191.969 135.35 187.916 135.35 182.918C135.35 177.919 131.297 173.866 126.298 173.866Z" fill="white"/>
<path d="M126.298 176.371C128.035 176.371 129.7 177.061 130.927 178.289C132.155 179.517 132.845 181.182 132.845 182.918C132.845 184.654 132.155 186.319 130.927 187.547C129.7 188.775 128.035 189.464 126.298 189.464H110.137C108.401 189.464 106.736 188.775 105.508 187.547C104.281 186.319 103.591 184.654 103.591 182.918C103.591 181.182 104.281 179.517 105.508 178.289C106.736 177.061 108.401 176.371 110.137 176.371H126.298ZM126.298 171.361H110.137C103.755 171.361 98.5801 176.535 98.5801 182.918C98.5801 189.301 103.755 194.475 110.137 194.475H126.298C132.681 194.475 137.855 189.3 137.855 182.918C137.855 176.536 132.681 171.361 126.298 171.361Z" fill="white"/>
<path d="M126.953 183.782V190.456C126.936 191.109 126.665 191.73 126.197 192.186C125.729 192.642 125.101 192.897 124.448 192.897C123.795 192.897 123.167 192.642 122.699 192.186C122.231 191.73 121.96 191.109 121.943 190.456V183.782C121.943 183.118 122.207 182.481 122.677 182.011C123.146 181.541 123.784 181.277 124.448 181.277C125.112 181.277 125.75 181.541 126.219 182.011C126.689 182.481 126.953 183.118 126.953 183.782Z" fill="white"/>
<path d="M35.1184 118.55H118.62V170.321C118.62 179.544 111.143 187.021 101.919 187.021H51.8187C42.5951 187.021 35.1184 179.544 35.1184 170.321V118.55Z" fill="white"/>
<path d="M37.6234 170.321C37.6234 178.161 43.9787 184.516 51.8186 184.516H101.919C109.759 184.516 116.114 178.161 116.114 170.321V121.055H37.6234V170.321ZM121.125 116.045V170.321C121.125 180.928 112.526 189.526 101.919 189.526H51.8186C41.2115 189.526 32.6133 180.928 32.6133 170.321V116.045H121.125Z" fill="white"/>
<path d="M69.3463 149.446H83.5599C91.3931 149.446 97.7443 155.796 97.7443 163.629C97.7443 164.759 97.609 165.884 97.3434 166.981L97.0078 168.36C95.8877 172.967 93.2525 177.064 89.5251 179.994C85.7977 182.924 81.1941 184.516 76.4531 184.516C71.7121 184.516 67.1086 182.924 63.3811 179.994C59.6537 177.064 57.0186 172.967 55.8985 168.36L55.5636 166.981C53.7133 159.369 58.3835 151.698 65.9954 149.847C67.0925 149.58 68.2174 149.446 69.3463 149.446Z" fill="white"/>
<path d="M61.4212 195.771C53.8552 195.771 47.7938 189.869 45.5836 180.958L44.3686 163.737C44.3219 163.074 44.0138 162.457 43.512 162.021C43.0103 161.586 42.3561 161.367 41.6932 161.414C41.0304 161.461 40.4133 161.769 39.9776 162.271C39.542 162.772 39.3235 163.426 39.3702 164.089L40.6152 181.73L40.6637 181.931C43.3299 193.021 51.2274 200.781 61.4212 200.781C71.4422 200.781 76.5466 194.281 78.9957 181.83L79.0174 181.702L79.6387 177.372C79.733 176.714 79.5622 176.046 79.1638 175.514C78.7654 174.982 78.1721 174.63 77.5144 174.536C76.8567 174.442 76.1884 174.613 75.6566 175.011C75.1248 175.409 74.773 176.003 74.6787 176.66L74.0675 180.926C72.0234 191.265 68.4704 195.771 61.4212 195.771Z" fill="white"/>
<path d="M53.3675 188.029H69.4741C74.4808 188.029 78.5389 192.087 78.5389 197.093C78.5389 202.099 74.4808 206.157 69.4749 206.157H53.3675C48.3616 206.158 44.3035 202.099 44.3035 197.093C44.3035 192.087 48.3616 188.029 53.3675 188.029Z" fill="white"/>
<path d="M53.3676 190.534C49.7453 190.534 46.8086 193.47 46.8086 197.093C46.8086 200.716 49.7453 203.652 53.3676 203.652H69.4742C71.2137 203.652 72.882 202.961 74.1121 201.731C75.3421 200.501 76.0332 198.833 76.0332 197.093C76.0332 195.354 75.3421 193.685 74.1121 192.455C72.882 191.225 71.2137 190.534 69.4742 190.534H53.3676ZM53.3676 185.524H69.4742C75.8637 185.524 81.0441 190.704 81.0441 197.093C81.0441 203.483 75.8637 208.662 69.475 208.662H53.3676C46.9789 208.663 41.7985 203.484 41.7985 197.093C41.7985 190.703 46.9789 185.524 53.3676 185.524Z" fill="white"/>
<path d="M52.6912 197.96V204.642C52.6912 205.306 52.9551 205.943 53.4249 206.413C53.8947 206.883 54.5319 207.147 55.1962 207.147C55.8606 207.147 56.4978 206.883 56.9676 206.413C57.4374 205.943 57.7013 205.306 57.7013 204.642V197.96C57.7013 197.295 57.4374 196.658 56.9676 196.189C56.4978 195.719 55.8606 195.455 55.1962 195.455C54.5319 195.455 53.8947 195.719 53.4249 196.189C52.9551 196.658 52.6912 197.295 52.6912 197.96ZM65.1412 197.96V204.642C65.1412 205.306 65.4052 205.943 65.8749 206.413C66.3447 206.883 66.9819 207.147 67.6463 207.147C68.3106 207.147 68.9478 206.883 69.4176 206.413C69.8874 205.943 70.1513 205.306 70.1513 204.642V197.96C70.1513 197.295 69.8874 196.658 69.4176 196.189C68.9478 195.719 68.3106 195.455 67.6463 195.455C66.9819 195.455 66.3447 195.719 65.8749 196.189C65.4052 196.658 65.1412 197.295 65.1412 197.96Z" fill="white"/>
<path d="M110.036 162.56C110.069 162.232 110.166 161.915 110.322 161.625C110.478 161.335 110.689 161.079 110.944 160.871C111.199 160.663 111.493 160.507 111.808 160.413C112.123 160.318 112.453 160.286 112.781 160.32C113.108 160.353 113.426 160.45 113.715 160.606C114.005 160.762 114.261 160.973 114.469 161.228C114.677 161.483 114.833 161.777 114.928 162.092C115.022 162.407 115.054 162.737 115.021 163.065L113.085 182.182L113.043 182.352C110.298 193.569 103.991 200.153 93.9383 200.153C88.646 200.153 84.6305 198.124 81.7931 194.245C79.5143 191.131 78.0581 187.011 76.8874 181.192L75.0921 174.644C75.0052 174.327 74.9815 173.995 75.0226 173.669C75.0637 173.342 75.1687 173.027 75.3316 172.741C75.6605 172.164 76.2053 171.741 76.8461 171.566C77.4869 171.39 78.1712 171.476 78.7484 171.805C79.3257 172.134 79.7487 172.679 79.9243 173.32L81.743 179.95L81.7839 180.122C83.9232 190.81 87.0929 195.143 93.94 195.143C101.298 195.143 105.871 190.412 108.137 181.326L110.036 162.56Z" fill="white"/>
<path d="M87.4436 189.253H103.87C108.788 189.253 112.774 193.24 112.774 198.157C112.774 203.075 108.788 207.062 103.87 207.062H87.4436C82.5254 207.062 78.539 203.075 78.539 198.157C78.539 193.24 82.5254 189.253 87.4436 189.253Z" fill="white"/>
<path d="M87.4436 191.758C85.7464 191.758 84.1188 192.432 82.9187 193.632C81.7187 194.833 81.0445 196.46 81.0445 198.157C81.0445 199.854 81.7187 201.482 82.9187 202.682C84.1188 203.882 85.7464 204.556 87.4436 204.556H103.87C105.554 204.537 107.163 203.855 108.348 202.657C109.532 201.459 110.196 199.842 110.196 198.157C110.196 196.473 109.532 194.856 108.348 193.658C107.163 192.46 105.554 191.777 103.87 191.758H87.4436ZM87.4436 186.748H103.87C110.172 186.748 115.28 191.856 115.28 198.157C115.28 204.459 110.172 209.567 103.87 209.567H87.4436C81.1418 209.567 76.034 204.459 76.034 198.157C76.034 191.856 81.1418 186.748 87.4436 186.748Z" fill="white"/>
<path d="M86.9267 197.338V203.902C86.9435 204.555 87.2148 205.176 87.6828 205.632C88.1507 206.088 88.7783 206.343 89.4317 206.343C90.0851 206.343 90.7126 206.088 91.1806 205.632C91.6485 205.176 91.9199 204.555 91.9367 203.902V197.338C91.9367 196.673 91.6728 196.036 91.203 195.566C90.7332 195.097 90.0961 194.833 89.4317 194.833C88.7673 194.833 88.1301 195.097 87.6604 195.566C87.1906 196.036 86.9267 196.673 86.9267 197.338ZM99.3767 197.338V203.902C99.3767 204.566 99.6406 205.203 100.11 205.673C100.58 206.143 101.217 206.407 101.882 206.407C102.546 206.407 103.183 206.143 103.653 205.673C104.123 205.203 104.387 204.566 104.387 203.902V197.338C104.387 196.673 104.123 196.036 103.653 195.566C103.183 195.097 102.546 194.833 101.882 194.833C101.217 194.833 100.58 195.097 100.11 195.566C99.6406 196.036 99.3767 196.673 99.3767 197.338Z" fill="white"/>
<path d="M74.3639 166.981C74.3639 167.867 74.7158 168.716 75.3421 169.343C75.9685 169.969 76.8181 170.321 77.7039 170.321C78.5897 170.321 79.4393 169.969 80.0657 169.343C80.6921 168.716 81.044 167.867 81.044 166.981C81.044 166.095 80.6921 165.246 80.0657 164.619C79.4393 163.993 78.5897 163.641 77.7039 163.641C76.8181 163.641 75.9685 163.993 75.3421 164.619C74.7158 165.246 74.3639 166.095 74.3639 166.981Z" fill="white"/>
<path d="M47.763 9.39172C59.732 6.11848 70.5955 4.67892 80.3535 5.07388C87.6531 5.36947 95.2 6.20949 102.992 7.59227C124.885 11.4784 141.971 28.7097 145.671 50.6346L151.088 82.7333C155.917 111.35 136.66 138.471 108.051 143.346C98.368 144.996 89.9954 145.907 82.9353 146.08C74.0967 146.296 62.5752 145.135 48.3709 142.599C20.7061 137.657 1.81062 111.843 5.46129 83.9791L9.48021 53.3C12.2341 32.2894 27.3236 14.9821 47.763 9.39172Z" fill="white"/>
<path d="M47.763 9.39173C27.3236 14.9821 12.2341 32.2894 9.48103 53.3L5.46212 83.9791C1.81145 111.843 20.7069 137.657 48.3717 142.599C62.5752 145.135 74.0967 146.296 82.9361 146.08C89.9962 145.907 98.3688 144.995 108.052 143.346C136.661 138.471 155.918 111.35 151.089 82.7333L145.671 50.6346C141.971 28.7097 124.885 11.4784 102.993 7.59228C95.2008 6.2095 87.654 5.36948 80.3543 5.07389C70.5955 4.67893 59.7329 6.11849 47.763 9.39173ZM46.442 4.55868C58.8811 1.15685 70.2507 -0.349516 80.5564 0.0679897C88.0865 0.372769 95.8579 1.23701 103.868 2.65903C127.846 6.91509 146.559 25.7872 150.611 49.8004L156.028 81.8991C161.317 113.241 140.226 142.946 108.892 148.283C98.9876 149.971 90.3819 150.909 83.0581 151.087C73.8345 151.314 61.9982 150.121 47.4907 147.529C17.1907 142.118 -3.50423 113.845 0.493809 83.327L4.51271 52.6478C7.52794 29.6383 24.0553 10.6818 46.442 4.55868Z" fill="white"/>
<path d="M75.6515 30.8741H86.6411C106.868 30.8741 124.05 45.6972 127.046 65.7333L129.495 82.1079C136.707 120.057 119.667 131.58 90.3828 135.086C88.752 135.281 87.1229 135.487 85.4821 135.557L74.647 136.022C49.7361 137.089 27.8738 124.867 27.6108 92.7776C27.5907 90.3795 27.5966 87.9813 27.8738 85.599L30.0014 67.3449C32.3177 47.4741 48.6397 32.1934 68.5906 31.2189L75.6515 30.8741Z" fill="white"/>
<path d="M68.7126 33.7214C49.9858 34.6366 34.6642 48.9804 32.4898 67.6354L30.3613 85.8896C30.1401 87.7909 30.0891 89.6029 30.115 92.7576C30.343 120.621 47.7889 134.666 74.5393 133.519L85.3744 133.054C86.5568 133.003 87.5237 132.906 89.7282 132.641L90.0855 132.598C105.519 130.751 115.683 126.82 121.735 119.868C128.463 112.142 130.382 100.198 127.034 82.5755L124.569 66.1032C121.756 47.2946 105.626 33.3791 86.6411 33.3791H75.7133L68.7126 33.7214ZM125.513 123.158C118.474 131.245 107.23 135.592 90.6801 137.574L90.326 137.616C87.9947 137.897 86.9417 138.003 85.5882 138.06L74.7531 138.525C45.3398 139.786 25.358 123.7 25.1049 92.7993C25.0774 89.4493 25.1333 87.4736 25.3847 85.3101L27.5131 67.0559C29.9714 45.9685 47.2929 29.7526 68.4679 28.718L75.5296 28.3723L86.6411 28.369C108.108 28.369 126.343 44.1015 129.523 65.3625L131.965 81.6895C135.561 100.657 133.392 114.108 125.513 123.158Z" fill="white"/>
<path d="M72.4977 86.6879C74.1293 84.572 76.0757 83.5032 78.3369 83.4798C80.5981 83.4564 82.5462 84.526 84.1787 86.6879C85.994 91.4341 87.0928 94.7232 87.4744 96.5544C87.856 98.3872 88.2184 102.101 88.5591 107.695H68.8478C68.4095 103.594 68.4095 100.284 68.8478 97.7618C69.2862 95.2401 70.502 91.5485 72.4977 86.6879Z" fill="white"/>
<path d="M71.0682 105.36C75.2733 104.69 78.0213 104.355 79.3122 104.355C80.6474 104.355 83.8605 104.713 88.9516 105.431C89.6156 105.524 90.2494 105.768 90.8045 106.144C91.3597 106.52 91.8216 107.018 92.1549 107.6C92.4882 108.182 92.6841 108.832 92.7276 109.502C92.7711 110.171 92.6612 110.841 92.406 111.461C91.7551 113.045 90.6863 114.423 89.3138 115.447C87.9414 116.471 86.3166 117.104 84.6129 117.277C81.7421 117.57 79.9744 117.715 79.3122 117.715C78.5357 117.715 76.2135 117.515 72.3449 117.113C71.1371 116.988 69.9984 116.489 69.0868 115.687C68.1753 114.885 67.5361 113.819 67.258 112.637L66.9799 111.454C66.8221 110.784 66.8042 110.088 66.9274 109.411C67.0506 108.733 67.3122 108.088 67.6959 107.516C68.0795 106.944 68.577 106.457 69.1572 106.086C69.7375 105.715 70.388 105.468 71.0682 105.36Z" fill="white"/>
<path d="M71.2836 107.869C70.637 108.021 70.0773 108.424 69.7277 108.989C69.378 109.553 69.267 110.234 69.4191 110.881L69.6971 112.064C69.8561 112.739 70.2214 113.348 70.7423 113.806C71.2632 114.265 71.9138 114.549 72.6038 114.621C76.358 115.011 78.6635 115.209 79.3131 115.209C79.8542 115.209 81.591 115.066 84.3599 114.784C85.6129 114.656 86.8078 114.191 87.8172 113.438C88.8266 112.684 89.6126 111.671 90.0914 110.507C90.201 110.239 90.248 109.951 90.229 109.663C90.21 109.375 90.1254 109.095 89.9817 108.844C89.838 108.594 89.639 108.379 89.3998 108.218C89.1607 108.056 88.8877 107.951 88.6018 107.911C83.641 107.212 80.483 106.86 79.3123 106.86C78.2017 106.86 75.5322 107.186 71.4632 107.834C71.4029 107.843 71.343 107.855 71.2836 107.869ZM79.3123 101.85C80.8111 101.85 84.0794 102.215 89.3007 102.95C90.3427 103.097 91.3374 103.48 92.2088 104.07C93.0801 104.66 93.8051 105.441 94.3284 106.354C94.8516 107.267 95.1593 108.288 95.2279 109.338C95.2965 110.388 95.1241 111.44 94.7241 112.413C93.9002 114.416 92.5483 116.158 90.8123 117.453C89.0764 118.749 87.0216 119.549 84.8668 119.769C81.8925 120.072 80.0964 120.22 79.3123 120.22C78.4088 120.22 76.0699 120.018 72.0861 119.605C70.3609 119.426 68.7343 118.714 67.4321 117.568C66.13 116.422 65.2169 114.9 64.8198 113.211L64.5418 112.028C64.3053 111.022 64.2787 109.979 64.4637 108.962C64.6487 107.946 65.0413 106.978 65.6169 106.121C66.1925 105.263 66.9389 104.533 67.8093 103.976C68.6797 103.42 69.6555 103.049 70.6758 102.886C75.0153 102.195 77.8418 101.85 79.3123 101.85Z" fill="white"/>
<path d="M42.8556 50.9352L33.6195 45.8675C28.8783 43.2656 25.1508 38.6355 27.8663 33.8208C28.2646 33.1144 32.5724 27.7561 33.126 27.1616C37.2343 22.7561 42.3078 25.7521 46.6056 29.7601C47.0206 30.1468 47.4031 30.5676 47.7496 31.0177L53.2031 37.6101" fill="white"/>
<path d="M48.3108 27.9231C45.5861 25.3822 43.0602 23.6696 40.5151 22.9022C37.1074 21.8751 33.8826 22.6692 31.2916 25.4473C30.4716 26.3266 26.1479 31.7575 25.682 32.5842C22.3912 38.4201 25.8114 44.4347 32.413 48.0569L41.6482 53.1246C41.9369 53.2867 42.2547 53.3899 42.5835 53.4283C42.9123 53.4668 43.2454 53.4397 43.5637 53.3486C43.8819 53.2575 44.1789 53.1043 44.4376 52.8978C44.6963 52.6912 44.9114 52.4354 45.0707 52.1452C45.2299 51.855 45.33 51.5361 45.3653 51.207C45.4005 50.8779 45.3702 50.545 45.276 50.2277C45.1819 49.9103 45.0258 49.6148 44.8167 49.3582C44.6076 49.1015 44.3498 48.8888 44.058 48.7325L34.8228 43.6648C30.3505 41.2107 28.4525 37.8715 30.0457 35.0449C30.1242 34.9055 31.1696 33.5428 32.3946 32.003C33.5561 30.5442 34.7477 29.0863 34.9548 28.8642C37.2569 26.3959 40.3172 27.3186 44.8939 31.5863C45.2087 31.8802 45.4993 32.1992 45.7623 32.5408L45.8166 32.6092L51.27 39.2016C51.4798 39.4552 51.7374 39.6649 52.0281 39.8189C52.3189 39.9728 52.6371 40.068 52.9647 40.099C53.2923 40.13 53.6227 40.0961 53.9372 39.9994C54.2517 39.9027 54.544 39.7449 54.7975 39.5352C55.0511 39.3255 55.2608 39.0679 55.4148 38.7771C55.5687 38.4864 55.6639 38.1681 55.6949 37.8406C55.7259 37.513 55.6921 37.1825 55.5953 36.8681C55.4986 36.5536 55.3409 36.2612 55.1311 36.0077L49.7036 29.447C49.2808 28.9026 48.8151 28.393 48.3108 27.9231Z" fill="white"/>
<path d="M44.8429 35.1685L45.9919 36.4887C46.6644 37.2609 47.0552 38.2383 47.1004 39.2613C47.1456 40.2843 46.8425 41.2923 46.2407 42.1208C45.6518 42.9317 44.7914 43.5042 43.816 43.7343C42.8406 43.9643 41.815 43.8365 40.9259 43.3742L39.2843 42.5216C38.6929 42.2144 38.1762 41.7809 37.7708 41.2519C37.3655 40.7229 37.0813 40.1113 36.9384 39.4603C36.7955 38.8094 36.7974 38.135 36.9439 37.4848C37.0904 36.8347 37.3779 36.2247 37.7862 35.6979L38.0468 35.3631C38.445 34.8493 38.9522 34.4301 39.5318 34.1356C40.1114 33.8412 40.749 33.6789 41.3989 33.6602C42.0487 33.6416 42.6946 33.7673 43.2901 34.028C43.8856 34.2888 44.4159 34.6783 44.8429 35.1685Z" fill="white"/>
<path d="M108.377 49.2652L117.613 44.1975C122.355 41.5964 125.15 37.1074 122.436 32.2927C122.036 31.5863 118.382 26.7174 117.636 26.0544C112.628 21.7699 108.925 24.0838 104.628 28.0918C104.212 28.4784 103.831 28.8993 103.483 29.3493L98.0306 35.9417" fill="white"/>
<path d="M102.924 26.259C105.763 23.612 107.86 22.1582 110.239 21.5386C113.3 20.742 116.297 21.6079 119.269 24.1497C120.199 24.9747 124.023 29.999 124.622 31.0611C127.928 36.9246 125.138 42.9275 118.823 46.3928L109.587 51.4604C109.298 51.6249 108.98 51.7302 108.65 51.7703C108.32 51.8104 107.985 51.7845 107.666 51.694C107.346 51.6035 107.047 51.4503 106.787 51.2433C106.527 51.0363 106.311 50.7796 106.151 50.4883C105.992 50.1969 105.891 49.8766 105.856 49.5461C105.822 49.2156 105.853 48.8815 105.948 48.5632C106.044 48.2449 106.202 47.9488 106.413 47.6922C106.624 47.4355 106.884 47.2234 107.178 47.0683L116.413 42.0006C120.533 39.7402 121.993 36.5981 120.259 33.5219C120.147 33.324 119.177 31.9855 118.178 30.6728C117.112 29.2717 116.137 28.0676 115.978 27.9265C112.815 25.2219 110.827 25.7396 106.341 29.9222C106.026 30.2159 105.736 30.5351 105.473 30.8766L105.42 30.9442L99.9662 37.5366C99.758 37.7945 99.5006 38.0084 99.2091 38.166C98.9176 38.3237 98.5977 38.4219 98.2679 38.4551C97.9382 38.4882 97.6051 38.4556 97.288 38.3591C96.971 38.2626 96.6762 38.1041 96.4208 37.8929C96.1655 37.6816 95.9545 37.4218 95.8003 37.1285C95.646 36.8351 95.5515 36.5141 95.5223 36.1839C95.493 35.8538 95.5295 35.5212 95.6297 35.2052C95.7299 34.8893 95.8918 34.5964 96.106 34.3435L101.533 27.7829C101.955 27.2386 102.42 26.7291 102.924 26.259Z" fill="white"/>
<path d="M106.592 33.4626L105.303 34.8738C104.617 35.6254 104.212 36.5907 104.155 37.6066C104.098 38.6225 104.394 39.6269 104.992 40.45C105.581 41.2607 106.442 41.8332 107.417 42.0632C108.392 42.2932 109.418 42.1655 110.307 41.7033L111.949 40.8508C112.549 40.5391 113.074 40.1018 113.49 39.5685C113.905 39.0353 114.201 38.4187 114.357 37.7608C114.512 37.1029 114.524 36.4192 114.392 35.7563C114.259 35.0934 113.985 34.4668 113.589 33.9194L113.542 33.8551C112.843 32.8908 111.791 32.2435 110.615 32.0554C109.439 31.8674 108.237 32.154 107.273 32.8522C107.025 33.0317 106.798 33.2363 106.592 33.4626Z" fill="white"/>
<path d="M82.7165 70.8344C82.7162 72.5733 83.0585 74.2952 83.7237 75.9018C84.389 77.5084 85.3642 78.9682 86.5936 80.1978C87.8231 81.4275 89.2828 82.4029 90.8892 83.0684C92.4957 83.7339 94.2176 84.0765 95.9564 84.0765C97.6953 84.0765 99.4171 83.7339 101.024 83.0684C102.63 82.4029 104.09 81.4275 105.319 80.1978C106.549 78.9682 107.524 77.5084 108.189 75.9018C108.854 74.2952 109.197 72.5733 109.196 70.8344C109.197 69.0956 108.854 67.3737 108.189 65.7671C107.524 64.1605 106.549 62.7007 105.319 61.471C104.09 60.2413 102.63 59.2659 101.024 58.6004C99.4171 57.9349 97.6953 57.5924 95.9564 57.5924C94.2176 57.5924 92.4957 57.9349 90.8892 58.6004C89.2828 59.2659 87.8231 60.2413 86.5936 61.471C85.3642 62.7007 84.389 64.1605 83.7237 65.7671C83.0585 67.3737 82.7162 69.0956 82.7165 70.8344Z" fill="white"/>
<path d="M95.9565 86.5785C87.2591 86.5785 80.2091 79.5302 80.2091 70.8336C80.2091 62.1386 87.2591 55.0894 95.9565 55.0894C104.652 55.0894 111.703 62.1386 111.703 70.8336C111.704 79.5302 104.652 86.5785 95.9565 86.5785ZM95.9565 81.5685C101.887 81.5685 106.693 76.7621 106.693 70.8336C106.694 64.9058 101.887 60.0995 95.9565 60.0995C90.0263 60.0995 85.2191 64.9058 85.2191 70.8336C85.2191 76.763 90.0263 81.5685 95.9565 81.5685Z" fill="white"/>
<path d="M87.5321 75.0336C88.0996 75.691 88.8545 76.159 89.6956 76.375C90.5368 76.591 91.4238 76.5446 92.2378 76.242C93.0518 75.9394 93.7537 75.395 94.2495 74.682C94.7452 73.969 95.0111 73.1214 95.0113 72.253C95.0228 71.124 94.5853 70.0367 93.7952 69.2302C93.005 68.4238 91.9268 67.9642 90.7978 67.9527C89.6688 67.9412 88.5815 68.3786 87.775 69.1688C86.9686 69.959 86.509 71.0372 86.4975 72.1662L89.6538 72.6246L87.5321 75.0336Z" fill="white"/>
<path d="M46.8119 70.5889C46.8119 74.4782 48.3569 78.2081 51.107 80.9583C53.8571 83.7084 57.5871 85.2534 61.4763 85.2534C65.3656 85.2534 69.0956 83.7084 71.8457 80.9583C74.5958 78.2081 76.1408 74.4782 76.1408 70.5889C76.1408 66.6997 74.5958 62.9697 71.8457 60.2196C69.0956 57.4694 65.3656 55.9244 61.4763 55.9244C57.5871 55.9244 53.8571 57.4694 51.107 60.2196C48.3569 62.9697 46.8119 66.6997 46.8119 70.5889Z" fill="white"/>
<path d="M61.4763 87.7592C51.9923 87.7592 44.3035 80.0712 44.3035 70.5889C44.3035 61.1065 51.9923 53.4193 61.4763 53.4193C70.9604 53.4193 78.6483 61.1065 78.6483 70.5889C78.6483 80.0712 70.9604 87.7592 61.4763 87.7592ZM61.4763 82.7491C68.1931 82.7491 73.6383 77.3048 73.6383 70.5897C73.6383 63.8737 68.1931 58.4294 61.4763 58.4294C54.7586 58.4294 49.3135 63.8737 49.3135 70.5889C49.3135 77.304 54.7586 82.7491 61.4763 82.7491Z" fill="white"/>
<path d="M62.6011 75.9313C63.3082 76.7504 64.2798 77.2961 65.3473 77.4736C66.4148 77.6511 67.5107 77.4493 68.4449 76.9031C69.3791 76.357 70.0926 75.5009 70.4615 74.4836C70.8304 73.4663 70.8315 72.352 70.4646 71.3339C70.0976 70.3159 69.3858 69.4585 68.4527 68.9105C67.5195 68.3625 66.424 68.1586 65.3562 68.334C64.2884 68.5095 63.3157 69.0533 62.607 69.871C61.8982 70.6888 61.4982 71.7289 61.4763 72.8108L64.9099 73.3102L62.6011 75.9313Z" fill="white"/>
<path d="M47.5918 89.4501C28.2338 83.0823 16.4935 79.7289 11.9661 79.3155C11.6351 79.2789 11.3001 79.3086 10.9808 79.4029C10.6614 79.4972 10.3641 79.6543 10.1061 79.8649C9.84815 80.0755 9.63477 80.3354 9.47845 80.6295C9.32214 80.9235 9.22601 81.2457 9.1957 81.5774C9.16539 81.909 9.20151 82.2433 9.30193 82.5608C9.40236 82.8783 9.56508 83.1726 9.78059 83.4265C9.99609 83.6804 10.26 83.8887 10.557 84.0394C10.854 84.19 11.178 84.28 11.5102 84.3039C15.4882 84.668 27.1291 87.993 46.0254 94.2088C46.3378 94.3117 46.6675 94.352 46.9955 94.3274C47.3236 94.3029 47.6436 94.214 47.9372 94.0657C48.2309 93.9175 48.4925 93.7129 48.7071 93.4636C48.9217 93.2143 49.0851 92.9252 49.188 92.6127C49.2908 92.3002 49.3311 91.9706 49.3066 91.6425C49.282 91.3145 49.1931 90.9945 49.0449 90.7008C48.8967 90.4071 48.6921 90.1455 48.4428 89.9309C48.1935 89.7163 47.9043 89.5529 47.5918 89.4501ZM108.651 89.4501C128.01 83.0823 139.749 79.728 144.277 79.3147C144.931 79.2675 145.578 79.4789 146.078 79.9035C146.578 80.3281 146.892 80.9319 146.952 81.5853C147.012 82.2386 146.813 82.8893 146.398 83.3975C145.983 83.9057 145.385 84.2309 144.733 84.3031C140.755 84.6671 129.114 87.9922 110.217 94.208C109.904 94.3108 109.575 94.351 109.247 94.3265C108.919 94.3019 108.599 94.213 108.305 94.0647C107.712 93.7654 107.263 93.2428 107.055 92.6119C106.848 91.9809 106.899 91.2933 107.198 90.7004C107.498 90.1075 108.02 89.6577 108.651 89.4501ZM145.175 100.224C145.386 100.203 145.535 100.187 145.643 100.172C145.702 100.163 145.702 100.163 145.793 100.147C145.895 100.136 145.895 100.136 146.402 99.9554C146.668 99.8376 146.668 99.8376 147.234 99.3383C147.602 98.8765 147.602 98.8765 147.845 97.9697C147.804 96.9092 147.804 96.9092 147.357 96.1711C146.545 95.4238 146.545 95.4238 146.172 95.3094C145.914 95.2325 145.914 95.2325 145.776 95.2075C145.465 95.1699 145.465 95.1699 145.373 95.1699C145.184 95.1666 144.87 95.1824 144.229 95.2217C143.136 95.2885 141.146 95.4238 138.251 95.6283C132.474 96.0367 123.092 96.7214 110.102 97.6816C109.774 97.7059 109.453 97.7946 109.16 97.9426C108.866 98.0906 108.604 98.295 108.389 98.5442C108.174 98.7933 108.011 99.0824 107.908 99.3948C107.805 99.7072 107.764 100.037 107.788 100.365C107.813 100.693 107.901 101.013 108.049 101.307C108.197 101.601 108.402 101.863 108.651 102.077C108.9 102.292 109.189 102.456 109.501 102.559C109.814 102.662 110.143 102.703 110.472 102.678C119.848 101.981 129.226 101.297 138.604 100.626C141.482 100.422 143.46 100.288 144.534 100.223C144.797 100.24 144.984 100.243 145.175 100.224ZM145.287 100.18C145.225 100.181 145.225 100.181 144.931 100.146C144.796 100.122 144.796 100.122 144.539 100.046C144.169 99.9311 144.169 99.9312 143.356 99.1855C142.91 98.4473 142.91 98.4473 142.869 97.3877C143.112 96.4809 143.112 96.4809 143.48 96.02C144.045 95.5206 144.045 95.5206 144.309 95.4046C144.804 95.2284 144.804 95.2284 144.882 95.2217L144.95 95.21C144.925 95.2142 144.825 95.225 144.676 95.24C144.015 95.3063 143.407 95.6323 142.986 96.1465C142.565 96.6607 142.366 97.321 142.432 97.9822C142.488 98.5469 142.735 99.0756 143.132 99.4818C143.528 99.888 144.05 100.148 144.614 100.218C145.013 100.194 145.294 100.18 145.287 100.18ZM76.869 118.55V132.745C76.869 133.41 77.133 134.047 77.6027 134.517C78.0725 134.987 78.7097 135.25 79.3741 135.25C80.0384 135.25 80.6756 134.987 81.1454 134.517C81.6152 134.047 81.8791 133.41 81.8791 132.745V118.55C81.8791 117.886 81.6152 117.249 81.1454 116.779C80.6756 116.309 80.0384 116.045 79.3741 116.045C78.7097 116.045 78.0725 116.309 77.6027 116.779C77.133 117.249 76.869 117.886 76.869 118.55ZM15.914 101.923C34.1724 101.913 45.3081 101.889 49.3379 101.85C50.0022 101.843 50.6368 101.573 51.1019 101.099C51.5669 100.624 51.8245 99.9843 51.8178 99.3199C51.8112 98.6555 51.5409 98.021 51.0664 97.5559C50.5919 97.0908 49.9521 96.8333 49.2878 96.8399C45.2805 96.88 34.1498 96.9042 15.9107 96.9126C15.5817 96.9128 15.256 96.9778 14.9522 97.1039C14.6483 97.23 14.3723 97.4147 14.1398 97.6475C13.9074 97.8802 13.723 98.1565 13.5974 98.4605C13.4717 98.7645 13.4071 99.0903 13.4073 99.4193C13.4075 99.7483 13.4725 100.074 13.5986 100.378C13.7247 100.682 13.9094 100.958 14.1422 101.19C14.375 101.423 14.6512 101.607 14.9553 101.733C15.2593 101.858 15.5851 101.923 15.914 101.923Z" fill="white"/>
<path d="M103.297 158.309C125.716 157.072 142.282 156.06 152.995 155.274C169.064 154.095 173.412 160.812 173.629 166.34C173.846 171.87 162.113 180.085 159.689 181.044C157.265 182.003 150.409 179.578 154.87 175.81C159.332 172.041 170.464 163.061 154.87 163.061C144.474 163.061 127.284 167.868 103.297 177.48V158.309Z" fill="#F6BD4E"/>
<path d="M105.665 173.992C128.229 165.132 144.574 160.692 154.87 160.692C160.339 160.692 163.618 161.715 164.843 164.291C165.968 166.661 164.944 169.084 162.63 171.79C161.813 172.747 160.833 173.732 159.671 174.791C159.094 175.317 158.507 175.833 157.912 176.339C157.666 176.55 157.417 176.76 157.11 177.018L156.398 177.618C156.208 177.773 156.034 177.947 155.88 178.138C155.914 178.164 155.953 178.191 155.996 178.22C156.833 178.769 158.362 179.023 158.816 178.843C159.975 178.385 163.415 176.011 166.071 173.64C169.378 170.688 171.321 167.945 171.261 166.434C171.164 163.96 170.088 161.791 167.882 160.221C164.935 158.123 160.101 157.127 153.167 157.636C142.798 158.397 126.966 159.368 105.665 160.55V173.992ZM103.167 155.944C125.572 154.707 142.126 153.698 152.821 152.912C167.817 151.811 175.648 157.386 175.995 166.248C176.129 169.671 173.546 173.317 169.226 177.173C166.19 179.884 162.328 182.548 160.559 183.247C158.558 184.038 155.444 183.522 153.398 182.179C150.37 180.193 150.122 176.721 153.343 174L154.058 173.397C154.357 173.146 154.598 172.941 154.835 172.738C155.391 172.265 155.939 171.782 156.48 171.291C157.508 170.354 158.358 169.5 159.03 168.713C160.219 167.322 160.604 166.41 160.563 166.325C160.551 166.299 160.33 166.139 159.691 165.939C158.646 165.614 157.041 165.43 154.87 165.43C144.863 165.43 127.9 170.172 104.177 179.679L100.929 180.979V156.067L103.167 155.944Z" fill="#524F75"/>
<path d="M158.421 178.075C159.428 179.273 159.958 180.801 159.909 182.365C159.859 183.93 159.234 185.421 158.153 186.553L148.917 196.219L149.48 187.67L138.748 192.054L145.046 183.78L138.754 180.811L149.547 176.025C151.048 175.36 152.726 175.2 154.326 175.569C155.926 175.939 157.363 176.819 158.421 178.075Z" fill="#B57D47"/>
<path d="M156.429 185.201C157.132 184.516 157.557 183.595 157.622 182.615C157.687 181.635 157.389 180.666 156.783 179.893C156.087 179.004 155.12 178.365 154.029 178.073C152.938 177.78 151.782 177.85 150.734 178.271L144.584 180.745L146.167 181.561C146.481 181.722 146.754 181.952 146.968 182.233C147.181 182.514 147.329 182.839 147.4 183.184C147.472 183.529 147.466 183.886 147.382 184.229C147.298 184.572 147.138 184.891 146.915 185.164L145.83 186.492L148.558 185.487C150.201 184.882 151.909 186.206 151.733 187.947L151.528 189.986L156.429 185.201ZM137.813 182.586C136.011 181.656 136.134 179.04 138.015 178.283L148.966 173.878C150.966 173.074 153.173 172.94 155.256 173.499C157.338 174.057 159.183 175.276 160.512 176.974C161.837 178.665 162.491 180.786 162.348 182.931C162.206 185.075 161.276 187.091 159.738 188.592L150.17 197.928C148.586 199.473 145.938 198.197 146.16 195.995L146.64 191.242L139.317 193.939C137.054 194.773 135.139 192.084 136.666 190.217L141.397 184.432L137.813 182.586Z" fill="#524F75"/>
<path d="M30.9839 143.271L49.783 149.345L55.0032 164.595C57.5529 172.044 53.5823 180.148 46.1337 182.699C44.6476 183.208 43.0875 183.468 41.5166 183.468H34.2685C30.6693 183.468 27.1781 182.238 24.3736 179.982C21.569 177.726 19.6194 174.58 18.8479 171.064L15.778 157.076C14.3761 150.689 18.4177 144.374 24.8046 142.973C26.8543 142.523 28.987 142.625 30.9839 143.271Z" fill="#F6BD4E"/>
<path d="M47.9272 151.234L30.2561 145.524C28.6587 145.008 26.9528 144.925 25.313 145.285C20.2025 146.408 16.97 151.459 18.0917 156.569L21.1616 170.557C21.8176 173.545 23.4748 176.219 25.8587 178.136C28.2426 180.054 31.21 181.099 34.2693 181.099H41.5174C42.8278 181.099 44.1279 180.882 45.3672 180.458C51.5781 178.332 54.8896 171.573 52.7638 165.362L47.9272 151.234ZM31.7117 141.017L51.6397 147.456L57.2443 163.829C60.2179 172.515 55.5866 181.966 46.901 184.939C45.1682 185.533 43.3491 185.836 41.5174 185.836H34.2693C30.1303 185.836 26.1156 184.422 22.8904 181.827C19.6652 179.233 17.4232 175.615 16.5358 171.572L13.4651 157.585C11.783 149.92 16.6321 142.342 24.297 140.66C26.7565 140.12 29.3155 140.243 31.7117 141.017Z" fill="#524F75"/>
<path d="M29.7296 170.366H45.0073C49.7333 170.366 53.5642 174.197 53.5642 178.922C53.5642 183.648 49.7325 187.479 45.0073 187.479H29.7296C25.0035 187.479 21.1727 183.648 21.1727 178.922C21.1727 174.196 25.0035 170.366 29.7296 170.366Z" fill="#F6BD4E"/>
<path d="M23.5408 178.922C23.5408 180.564 24.1929 182.138 25.3535 183.299C26.5141 184.459 28.0882 185.111 29.7296 185.111H45.0073C46.6487 185.111 48.2228 184.459 49.3834 183.299C50.544 182.138 51.1961 180.564 51.1961 178.922C51.1961 177.281 50.544 175.707 49.3834 174.546C48.2228 173.386 46.6487 172.734 45.0073 172.734H29.7296C28.0882 172.734 26.5141 173.386 25.3535 174.546C24.1929 175.707 23.5408 177.281 23.5408 178.922ZM29.7296 167.997H45.0073C51.0413 167.997 55.9324 172.888 55.9324 178.922C55.9324 184.957 51.0406 189.848 45.0073 189.848H29.7296C23.6956 189.848 18.8045 184.956 18.8045 178.922C18.8045 172.889 23.6956 167.997 29.7296 167.997Z" fill="#524F75"/>
<path d="M29.1107 179.739V186.048C29.1107 186.676 29.3602 187.279 29.8043 187.723C30.2484 188.167 30.8508 188.416 31.4789 188.416C32.1069 188.416 32.7093 188.167 33.1534 187.723C33.5975 187.279 33.847 186.676 33.847 186.048V179.739C33.847 179.111 33.5975 178.509 33.1534 178.065C32.7093 177.621 32.1069 177.371 31.4789 177.371C30.8508 177.371 30.2484 177.621 29.8043 178.065C29.3602 178.509 29.1107 179.111 29.1107 179.739Z" fill="#524F75"/>
<path d="M121.142 143.271L102.342 149.345L97.1223 164.595C94.5726 172.044 98.544 180.148 105.992 182.699C107.478 183.208 109.039 183.468 110.61 183.468H117.858C121.457 183.468 124.948 182.238 127.753 179.982C130.557 177.726 132.507 174.58 133.278 171.064L136.348 157.076C137.75 150.689 133.708 144.374 127.322 142.973C125.272 142.523 123.139 142.625 121.142 143.271Z" fill="#F6BD4E"/>
<path d="M121.87 145.524C123.468 145.008 125.174 144.925 126.813 145.285C131.924 146.408 135.156 151.459 134.035 156.569L130.965 170.557C130.309 173.545 128.651 176.22 126.268 178.137C123.884 180.054 120.916 181.099 117.857 181.1H110.609C109.299 181.1 107.998 180.882 106.759 180.459C100.547 178.333 97.236 171.574 99.3618 165.363L104.199 151.234L121.87 145.524ZM120.415 141.017L100.487 147.455L94.882 163.828C91.9084 172.514 96.5398 181.966 105.226 184.938C106.959 185.532 108.778 185.835 110.61 185.835H117.858C121.997 185.835 126.012 184.421 129.237 181.827C132.462 179.233 134.704 175.614 135.591 171.572L138.661 157.585C140.344 149.92 135.493 142.342 127.829 140.66C125.37 140.12 122.811 140.243 120.415 141.017Z" fill="#524F75"/>
<path d="M122.397 170.366H107.119C102.393 170.366 98.5614 174.197 98.5614 178.922C98.5614 183.648 102.393 187.479 107.118 187.479H122.397C127.123 187.479 130.954 183.648 130.954 178.922C130.954 174.196 127.123 170.366 122.397 170.366Z" fill="#F6BD4E"/>
<path d="M122.397 172.734C124.038 172.734 125.612 173.386 126.773 174.546C127.934 175.707 128.586 177.281 128.586 178.922C128.586 180.564 127.934 182.138 126.773 183.299C125.612 184.459 124.038 185.111 122.397 185.111H107.119C105.478 185.111 103.904 184.459 102.743 183.299C101.582 182.138 100.93 180.564 100.93 178.922C100.93 177.281 101.582 175.707 102.743 174.546C103.904 173.386 105.478 172.734 107.119 172.734H122.397ZM122.397 167.997H107.119C101.085 167.997 96.1933 172.888 96.1933 178.922C96.1933 184.957 101.085 189.848 107.118 189.848H122.397C128.431 189.848 133.322 184.956 133.322 178.922C133.322 172.889 128.431 167.997 122.397 167.997Z" fill="#524F75"/>
<path d="M123.016 179.739V186.048C123 186.666 122.743 187.252 122.301 187.684C121.858 188.115 121.265 188.356 120.648 188.356C120.03 188.356 119.437 188.115 118.994 187.684C118.552 187.252 118.295 186.666 118.279 186.048V179.739C118.279 179.111 118.529 178.509 118.973 178.065C119.417 177.621 120.019 177.371 120.648 177.371C121.276 177.371 121.878 177.621 122.322 178.065C122.766 178.509 123.016 179.111 123.016 179.739Z" fill="#524F75"/>
<path d="M36.1994 118.072H115.138V167.014C115.138 175.733 108.07 182.801 99.35 182.801H51.987C43.2675 182.801 36.1994 175.733 36.1994 167.014V118.072Z" fill="#F6BD4E"/>
<path d="M38.5675 167.014C38.5675 174.425 44.5755 180.433 51.987 180.433H99.35C106.761 180.433 112.769 174.425 112.769 167.014V120.44H38.5675V167.014ZM117.506 115.704V167.014C117.506 177.041 109.377 185.17 99.35 185.17H51.987C41.9595 185.17 33.8312 177.041 33.8312 167.014V115.704H117.506Z" fill="#524F75"/>
<path d="M68.5569 147.279H81.9938C89.399 147.279 95.403 153.283 95.403 160.688C95.403 161.756 95.2751 162.819 95.0241 163.856L94.7068 165.16C93.6479 169.515 91.1567 173.389 87.633 176.158C84.1093 178.928 79.7573 180.433 75.2753 180.433C70.7934 180.433 66.4414 178.928 62.9177 176.158C59.3939 173.389 56.9028 169.515 55.8439 165.16L55.5274 163.856C53.7781 156.66 58.1931 149.408 65.3891 147.658C66.4262 147.406 67.4897 147.279 68.5569 147.279Z" fill="#FFE281"/>
<path d="M61.0649 191.073C53.9123 191.073 48.1822 185.494 46.0927 177.07L44.9441 160.79C44.9 160.163 44.6087 159.58 44.1344 159.168C43.66 158.756 43.0415 158.549 42.4149 158.593C41.7883 158.638 41.2049 158.929 40.7931 159.403C40.3813 159.878 40.1747 160.496 40.2189 161.123L41.3959 177.799L41.4416 177.989C43.9621 188.473 51.4281 195.81 61.0649 195.81C70.5383 195.81 75.3638 189.664 77.679 177.894L77.6996 177.773L78.2869 173.679C78.376 173.058 78.2146 172.426 77.838 171.923C77.4613 171.42 76.9005 171.088 76.2787 170.999C75.6569 170.909 75.0251 171.071 74.5224 171.448C74.0196 171.824 73.6871 172.385 73.5979 173.007L73.0201 177.039C71.0877 186.813 67.7289 191.073 61.0649 191.073Z" fill="#524F75"/>
<path d="M53.4513 183.754H68.6777C73.4108 183.754 77.2472 187.591 77.2472 192.323C77.2472 197.055 73.4108 200.892 68.6785 200.892H53.4513C48.7189 200.893 44.8825 197.055 44.8825 192.323C44.8825 187.591 48.7189 183.754 53.4513 183.754Z" fill="#F6BD4E"/>
<path d="M53.4513 186.122C50.027 186.122 47.2507 188.898 47.2507 192.323C47.2507 195.748 50.027 198.524 53.4513 198.524H68.6777C70.3222 198.524 71.8993 197.87 73.0622 196.708C74.225 195.545 74.8783 193.968 74.8783 192.323C74.8783 190.679 74.225 189.101 73.0622 187.939C71.8993 186.776 70.3222 186.122 68.6777 186.122H53.4513ZM53.4513 181.386H68.6777C74.7181 181.386 79.6154 186.283 79.6154 192.323C79.6154 198.363 74.718 203.26 68.6785 203.26H53.4513C47.4117 203.261 42.5144 198.364 42.5144 192.323C42.5144 186.282 47.4117 181.386 53.4513 181.386Z" fill="#524F75"/>
<path d="M52.8119 193.142V199.459C52.8119 200.087 53.0614 200.689 53.5055 201.134C53.9496 201.578 54.552 201.827 55.18 201.827C55.8081 201.827 56.4105 201.578 56.8546 201.134C57.2987 200.689 57.5482 200.087 57.5482 199.459V193.142C57.5482 192.514 57.2987 191.912 56.8546 191.468C56.4105 191.024 55.8081 190.774 55.18 190.774C54.552 190.774 53.9496 191.024 53.5055 191.468C53.0614 191.912 52.8119 192.514 52.8119 193.142ZM64.5816 193.142V199.459C64.5816 200.087 64.8311 200.689 65.2752 201.134C65.7193 201.578 66.3217 201.827 66.9497 201.827C67.5778 201.827 68.1802 201.578 68.6243 201.134C69.0684 200.689 69.3179 200.087 69.3179 199.459V193.142C69.3179 192.514 69.0684 191.912 68.6243 191.468C68.1802 191.024 67.5778 190.774 66.9497 190.774C66.3217 190.774 65.7193 191.024 65.2752 191.468C64.8311 191.912 64.5816 192.514 64.5816 193.142Z" fill="#524F75"/>
<path d="M107.023 159.677C107.054 159.367 107.146 159.067 107.293 158.793C107.441 158.519 107.641 158.277 107.882 158.08C108.123 157.884 108.4 157.736 108.698 157.647C108.996 157.558 109.308 157.528 109.618 157.559C109.927 157.59 110.228 157.682 110.501 157.83C110.775 157.977 111.017 158.177 111.214 158.418C111.411 158.659 111.558 158.936 111.647 159.234C111.737 159.532 111.767 159.845 111.735 160.154L109.906 178.227L109.865 178.387C107.271 188.991 101.308 195.216 91.805 195.216C86.8019 195.216 83.0058 193.297 80.3235 189.63C78.1692 186.687 76.7926 182.792 75.6859 177.291L73.9887 171.1C73.9065 170.801 73.8841 170.487 73.923 170.179C73.9618 169.87 74.0611 169.572 74.215 169.302C74.526 168.756 75.041 168.356 75.6468 168.19C76.2526 168.024 76.8995 168.106 77.4452 168.417C77.9909 168.728 78.3908 169.243 78.5568 169.849L80.2761 176.117L80.3148 176.279C82.3372 186.383 85.3337 190.479 91.8066 190.479C98.7627 190.479 103.086 186.007 105.228 177.418L107.023 159.677Z" fill="#524F75"/>
<path d="M85.6652 184.912H101.194C105.843 184.912 109.612 188.68 109.612 193.329C109.612 197.978 105.843 201.747 101.194 201.747H85.6652C81.0158 201.747 77.2473 197.978 77.2473 193.329C77.2473 188.68 81.0158 184.912 85.6652 184.912Z" fill="#F6BD4E"/>
<path d="M85.6653 187.28C84.0608 187.28 82.5222 187.917 81.3877 189.051C80.2532 190.186 79.6158 191.725 79.6158 193.329C79.6158 194.933 80.2532 196.472 81.3877 197.607C82.5222 198.741 84.0608 199.378 85.6653 199.378H101.194C102.786 199.36 104.307 198.715 105.427 197.582C106.547 196.45 107.175 194.922 107.175 193.329C107.175 191.737 106.547 190.208 105.427 189.076C104.307 187.943 102.786 187.298 101.194 187.28H85.6653ZM85.6653 182.543H101.194C107.151 182.543 111.98 187.372 111.98 193.329C111.98 199.286 107.151 204.115 101.194 204.115H85.6653C79.7078 204.115 74.8791 199.286 74.8791 193.329C74.8791 187.372 79.7078 182.543 85.6653 182.543Z" fill="#524F75"/>
<path d="M85.1766 192.554V198.76C85.1925 199.377 85.449 199.964 85.8914 200.395C86.3338 200.826 86.9271 201.067 87.5448 201.067C88.1624 201.067 88.7557 200.826 89.1981 200.395C89.6404 199.964 89.897 199.377 89.9129 198.76V192.554C89.9129 191.926 89.6634 191.324 89.2193 190.88C88.7752 190.436 88.1728 190.186 87.5448 190.186C86.9167 190.186 86.3143 190.436 85.8702 190.88C85.4261 191.324 85.1766 191.926 85.1766 192.554ZM96.9463 192.554V198.76C96.9463 199.388 97.1958 199.99 97.6399 200.434C98.084 200.878 98.6864 201.128 99.3144 201.128C99.9425 201.128 100.545 200.878 100.989 200.434C101.433 199.99 101.683 199.388 101.683 198.76V192.554C101.683 191.926 101.433 191.324 100.989 190.88C100.545 190.436 99.9425 190.186 99.3144 190.186C98.6864 190.186 98.084 190.436 97.6399 190.88C97.1958 191.324 96.9463 191.926 96.9463 192.554Z" fill="#524F75"/>
<path d="M73.3003 163.856C73.3003 164.694 73.633 165.497 74.2251 166.089C74.8173 166.681 75.6204 167.014 76.4578 167.014C77.2952 167.014 78.0984 166.681 78.6905 166.089C79.2827 165.497 79.6154 164.694 79.6154 163.856C79.6154 163.019 79.2827 162.216 78.6905 161.624C78.0984 161.031 77.2952 160.699 76.4578 160.699C75.6204 160.699 74.8173 161.031 74.2251 161.624C73.633 162.216 73.3003 163.019 73.3003 163.856Z" fill="#524F75"/>
<path d="M48.153 14.8785C59.468 11.7841 69.7379 10.4232 78.9626 10.7966C85.8634 11.0761 92.9978 11.8702 100.364 13.1774C121.061 16.8512 137.213 33.1409 140.71 53.8677L145.832 84.2123C150.397 111.265 132.192 136.904 105.146 141.513C95.9927 143.073 88.0776 143.934 81.4033 144.097C73.0477 144.302 62.1558 143.204 48.7277 140.806C22.5746 136.135 4.71168 111.732 8.16286 85.3901L11.9622 56.3874C14.5656 36.525 28.8305 20.1634 48.153 14.8785Z" fill="#FFE281"/>
<path d="M48.153 14.8785C28.8305 20.1634 14.5655 36.525 11.9629 56.3874L8.16365 85.3901C4.71247 111.732 22.5754 136.135 48.7284 140.806C62.1558 143.204 73.0477 144.302 81.4041 144.097C88.0784 143.934 95.9935 143.072 105.147 141.513C132.193 136.904 150.398 111.265 145.833 84.2123L140.711 53.8677C137.213 33.1409 121.061 16.8512 100.365 13.1774C92.9986 11.8702 85.8641 11.0761 78.9634 10.7966C69.7378 10.4232 59.4688 11.7841 48.153 14.8785ZM46.9042 10.3096C58.6636 7.09363 69.4118 5.66958 79.1544 6.06427C86.273 6.3524 93.6198 7.16941 101.192 8.51373C123.86 12.5372 141.55 30.378 145.381 53.0791L150.502 83.4237C155.502 113.053 135.564 141.135 105.942 146.18C96.5784 147.776 88.443 148.662 81.5194 148.831C72.7999 149.045 61.6104 147.918 47.8956 145.468C19.2513 140.352 -0.312738 113.624 3.46682 84.7736L7.26612 55.7709C10.1166 34.0187 25.7408 16.0981 46.9042 10.3096Z" fill="#524F75"/>
<path d="M74.5175 35.187H84.9066C104.028 35.187 120.271 49.2001 123.104 68.1413L125.418 83.6211C132.236 119.496 116.127 130.39 88.4438 133.704C86.9022 133.888 85.3621 134.083 83.8109 134.149L73.5679 134.589C50.0183 135.598 29.3506 124.044 29.102 93.7078C29.083 91.4407 29.0886 89.1736 29.3506 86.9215L31.362 69.6648C33.5517 50.8799 48.9818 36.4342 67.8425 35.513L74.5175 35.187Z" fill="#F3B438"/>
<path d="M67.9578 37.8787C50.2543 38.7439 35.7699 52.3039 33.7144 69.9395L31.7022 87.1962C31.493 88.9936 31.4449 90.7066 31.4694 93.6889C31.6849 120.03 48.1774 133.307 73.4661 132.223L83.7091 131.784C84.8269 131.735 85.741 131.643 87.825 131.393L88.1628 131.353C102.753 129.606 112.361 125.89 118.083 119.318C124.443 112.014 126.258 100.722 123.092 84.0631L120.762 68.491C118.103 50.7102 102.854 37.5551 84.9066 37.5551H74.576L67.9578 37.8787ZM121.655 122.428C115 130.073 104.37 134.183 88.7249 136.056L88.3902 136.096C86.1862 136.361 85.1908 136.462 83.9112 136.516L73.6682 136.956C45.8622 138.148 26.9723 122.94 26.7331 93.7283C26.707 90.5613 26.7599 88.6937 26.9975 86.6484L29.0097 69.3917C31.3336 49.4566 47.7085 34.1268 67.7265 33.1488L74.4023 32.822L84.9066 32.8188C105.201 32.8188 122.439 47.6915 125.445 67.7908L127.754 83.2256C131.153 101.156 129.103 113.873 121.655 122.428Z" fill="#524F75"/>
<path d="M71.536 87.9509C73.0785 85.9506 74.9185 84.9402 77.0562 84.918C79.1938 84.8959 81.0355 85.9071 82.5787 87.9509C84.2948 92.4377 85.3337 95.5471 85.6944 97.2782C86.0552 99.0109 86.3977 102.521 86.7198 107.81H68.0856C67.6712 103.933 67.6712 100.804 68.0856 98.4196C68.5001 96.0357 69.6494 92.5458 71.536 87.9509Z" fill="#FFD074"/>
<path d="M70.1847 105.602C74.16 104.969 76.7579 104.653 77.9782 104.653C79.2405 104.653 82.278 104.991 87.0909 105.669C87.7186 105.758 88.3177 105.989 88.8426 106.344C89.3674 106.7 89.8041 107.17 90.1191 107.72C90.4342 108.271 90.6194 108.885 90.6606 109.518C90.7017 110.15 90.5977 110.784 90.3566 111.37C89.7411 112.868 88.7308 114.17 87.4333 115.138C86.1359 116.107 84.5999 116.704 82.9892 116.868C80.2753 117.145 78.6042 117.283 77.9782 117.283C77.2441 117.283 75.0488 117.093 71.3916 116.714C70.2499 116.595 69.1734 116.124 68.3116 115.365C67.4499 114.607 66.8456 113.599 66.5827 112.482L66.3198 111.364C66.1707 110.73 66.1538 110.072 66.2702 109.432C66.3867 108.791 66.634 108.182 66.9966 107.641C67.3593 107.1 67.8297 106.64 68.3782 106.289C68.9267 105.939 69.5417 105.705 70.1847 105.602Z" fill="#9B764F"/>
<path d="M70.3883 107.974C69.777 108.118 69.2479 108.499 68.9174 109.033C68.5868 109.567 68.4819 110.21 68.6256 110.822L68.8885 111.94C69.0388 112.579 69.3841 113.154 69.8765 113.587C70.369 114.021 70.984 114.29 71.6363 114.357C75.1854 114.726 77.3649 114.914 77.979 114.914C78.4905 114.914 80.1325 114.778 82.7501 114.511C83.9346 114.391 85.0642 113.951 86.0184 113.239C86.9726 112.527 87.7157 111.569 88.1684 110.468C88.2719 110.215 88.3164 109.943 88.2984 109.67C88.2804 109.398 88.2005 109.133 88.0646 108.896C87.9288 108.66 87.7406 108.457 87.5145 108.304C87.2885 108.151 87.0304 108.052 86.7601 108.014C82.0704 107.354 79.085 107.021 77.9782 107.021C76.9284 107.021 74.4047 107.329 70.5581 107.941C70.501 107.95 70.4444 107.961 70.3883 107.974ZM77.9782 102.284C79.3952 102.284 82.4848 102.629 87.4208 103.324C88.4059 103.463 89.3462 103.825 90.17 104.383C90.9937 104.941 91.6791 105.679 92.1738 106.542C92.6684 107.405 92.9593 108.37 93.0241 109.363C93.089 110.356 92.9261 111.35 92.5479 112.27C91.769 114.164 90.4909 115.811 88.8499 117.035C87.2088 118.26 85.2663 119.016 83.2292 119.224C80.4174 119.51 78.7195 119.651 77.9782 119.651C77.1241 119.651 74.9131 119.46 71.1469 119.069C69.516 118.9 67.9783 118.227 66.7473 117.144C65.5163 116.061 64.6531 114.621 64.2777 113.025L64.0149 111.906C63.7913 110.955 63.7662 109.969 63.9411 109.008C64.116 108.047 64.4871 107.133 65.0313 106.322C65.5754 105.511 66.281 104.821 67.1038 104.294C67.9267 103.768 68.8492 103.418 69.8137 103.264C73.9161 102.61 76.5881 102.284 77.9782 102.284Z" fill="#524F75"/>
<path d="M43.5138 54.1519L34.7824 49.3611C30.3003 46.9014 26.7765 42.5243 29.3436 37.9727C29.7201 37.3049 33.7925 32.2394 34.3159 31.6774C38.1996 27.5126 42.9959 30.3449 47.0589 34.1339C47.4512 34.4994 47.8127 34.8972 48.1403 35.3227L53.2958 41.5549" fill="#F3B438"/>
<path d="M48.6709 32.3973C46.0951 29.9952 43.7072 28.3762 41.3012 27.6507C38.0797 26.6798 35.0311 27.4305 32.5817 30.0568C31.8065 30.888 27.7191 36.0221 27.2786 36.8036C24.1676 42.3206 27.4009 48.0065 33.6418 51.4309L42.3724 56.2216C42.6452 56.3748 42.9458 56.4724 43.2566 56.5088C43.5674 56.5451 43.8823 56.5195 44.1832 56.4334C44.484 56.3473 44.7648 56.2024 45.0093 56.0072C45.2539 55.8119 45.4573 55.5701 45.6078 55.2958C45.7583 55.0214 45.853 54.72 45.8863 54.4088C45.9196 54.0977 45.891 53.783 45.802 53.483C45.7129 53.183 45.5654 52.9036 45.3677 52.661C45.1701 52.4184 44.9263 52.2173 44.6505 52.0695L35.92 47.2787C31.692 44.9587 29.8978 41.802 31.4039 39.1299C31.4781 38.9981 32.4664 37.7098 33.6244 36.2542C34.7225 34.8752 35.8489 33.4969 36.0447 33.2869C38.221 30.9535 41.1141 31.8258 45.4407 35.8603C45.7383 36.1382 46.013 36.4397 46.2617 36.7626L46.313 36.8273L51.4684 43.0595C51.6667 43.2991 51.9102 43.4974 52.1851 43.643C52.46 43.7885 52.7608 43.8785 53.0705 43.9078C53.3801 43.9371 53.6925 43.9051 53.9898 43.8136C54.2871 43.7222 54.5635 43.5731 54.8032 43.3748C55.0428 43.1766 55.2411 42.9331 55.3867 42.6582C55.5322 42.3833 55.6222 42.0824 55.6515 41.7728C55.6808 41.4631 55.6488 41.1507 55.5573 40.8534C55.4659 40.5561 55.3168 40.2798 55.1185 40.0401L49.9875 33.8379C49.5879 33.3232 49.1476 32.8415 48.6709 32.3973Z" fill="#524F75"/>
<path d="M45.3925 39.2467L46.4787 40.4948C47.1144 41.2247 47.4839 42.1488 47.5266 43.1158C47.5693 44.0829 47.2828 45.0359 46.7139 45.8191C46.1572 46.5857 45.3438 47.127 44.4217 47.3444C43.4996 47.5619 42.5301 47.4411 41.6895 47.004L40.1376 46.198C39.5785 45.9076 39.0901 45.4978 38.7069 44.9977C38.3236 44.4976 38.055 43.9194 37.9199 43.304C37.7848 42.6887 37.7866 42.0511 37.9251 41.4365C38.0636 40.8219 38.3354 40.2452 38.7214 39.7472L38.9677 39.4307C39.3442 38.9449 39.8237 38.5486 40.3716 38.2703C40.9195 37.992 41.5223 37.8385 42.1366 37.8209C42.751 37.8033 43.3616 37.922 43.9245 38.1686C44.4875 38.4151 44.9888 38.7833 45.3925 39.2467Z" fill="#E1A126"/>
<path d="M105.455 52.5731L114.186 47.7824C118.668 45.3234 121.311 41.0797 118.745 36.5281C118.368 35.8603 114.913 31.2574 114.208 30.6307C109.474 26.5803 105.973 28.7677 101.911 32.5567C101.518 32.9222 101.157 33.3201 100.828 33.7456L95.6738 39.9777" fill="#F3B438"/>
<path d="M100.3 30.8241C102.983 28.3217 104.966 26.9474 107.215 26.3617C110.108 25.6086 112.942 26.4272 115.752 28.8301C116.631 29.61 120.246 34.3597 120.812 35.3638C123.938 40.9068 121.3 46.5817 115.33 49.8576L106.599 54.6484C106.326 54.8039 106.025 54.9035 105.713 54.9414C105.401 54.9793 105.085 54.9547 104.782 54.8692C104.48 54.7837 104.198 54.6388 103.952 54.4431C103.706 54.2474 103.502 54.0048 103.351 53.7293C103.2 53.4539 103.105 53.1511 103.072 52.8387C103.039 52.5262 103.069 52.2104 103.159 51.9095C103.249 51.6086 103.399 51.3287 103.598 51.086C103.798 50.8434 104.044 50.6429 104.321 50.4963L113.052 45.7055C116.947 43.5686 118.327 40.5982 116.687 37.6901C116.581 37.503 115.664 36.2376 114.72 34.9967C113.713 33.6721 112.791 32.5339 112.64 32.4004C109.651 29.8436 107.771 30.3331 103.53 34.2871C103.232 34.5648 102.958 34.8665 102.71 35.1893L102.659 35.2533L97.5036 41.4855C97.3067 41.7292 97.0634 41.9314 96.7878 42.0805C96.5122 42.2295 96.2098 42.3224 95.8981 42.3537C95.5863 42.385 95.2715 42.3542 94.9717 42.263C94.672 42.1717 94.3933 42.0219 94.1519 41.8222C93.9105 41.6225 93.7111 41.3769 93.5653 41.0996C93.4195 40.8223 93.3301 40.5188 93.3024 40.2067C93.2748 39.8946 93.3093 39.5801 93.404 39.2815C93.4987 38.9828 93.6518 38.7059 93.8543 38.4669L98.9845 32.2647C99.3838 31.7502 99.8235 31.2685 100.3 30.8241Z" fill="#524F75"/>
<path d="M103.767 37.6341L102.549 38.9681C101.9 39.6787 101.517 40.5912 101.463 41.5516C101.41 42.512 101.689 43.4615 102.255 44.2396C102.812 45.006 103.625 45.5472 104.547 45.7646C105.469 45.9821 106.439 45.8614 107.279 45.4245L108.831 44.6185C109.398 44.3239 109.895 43.9104 110.288 43.4063C110.681 42.9022 110.961 42.3193 111.108 41.6974C111.255 41.0755 111.266 40.4291 111.141 39.8024C111.016 39.1757 110.757 38.5834 110.382 38.0659L110.337 38.0051C109.677 37.0935 108.682 36.4815 107.57 36.3038C106.459 36.126 105.322 36.3969 104.411 37.057C104.177 37.2267 103.962 37.4201 103.767 37.6341Z" fill="#E1A126"/>
<path d="M81.1965 72.9637C81.1962 74.6075 81.5198 76.2353 82.1487 77.7541C82.7776 79.2729 83.6995 80.653 84.8618 81.8154C86.024 82.9779 87.4039 83.9 88.9226 84.5292C90.4413 85.1583 92.0691 85.4821 93.7129 85.4821C95.3568 85.4821 96.9845 85.1583 98.5032 84.5292C100.022 83.9 101.402 82.9779 102.564 81.8154C103.726 80.653 104.648 79.2729 105.277 77.7541C105.906 76.2353 106.23 74.6075 106.229 72.9637C106.23 71.3198 105.906 69.692 105.277 68.1732C104.648 66.6544 103.726 65.2744 102.564 64.1119C101.402 62.9495 100.022 62.0273 98.5032 61.3982C96.9845 60.7691 95.3568 60.4453 93.7129 60.4453C92.0691 60.4453 90.4413 60.7691 88.9226 61.3982C87.4039 62.0273 86.024 62.9495 84.8618 64.1119C83.6995 65.2744 82.7776 66.6544 82.1487 68.1732C81.5198 69.692 81.1962 71.3198 81.1965 72.9637Z" fill="white"/>
<path d="M93.713 87.8475C85.4908 87.8475 78.826 81.1843 78.826 72.9629C78.826 64.743 85.4908 58.0791 93.713 58.0791C101.934 58.0791 108.599 64.743 108.599 72.9629C108.6 81.1843 101.934 87.8475 93.713 87.8475ZM93.713 83.1112C99.3192 83.1112 103.863 78.5675 103.863 72.9629C103.864 67.359 99.3192 62.8153 93.713 62.8153C88.1068 62.8153 83.5623 67.359 83.5623 72.9629C83.5623 78.5683 88.1068 83.1112 93.713 83.1112Z" fill="#524F75"/>
<path d="M85.7489 76.9334C86.2854 77.5549 86.9991 77.9974 87.7942 78.2016C88.5894 78.4058 89.428 78.3619 90.1975 78.0758C90.967 77.7897 91.6306 77.2751 92.0992 76.6011C92.5679 75.927 92.8192 75.1258 92.8194 74.3048C92.8303 73.2375 92.4167 72.2096 91.6697 71.4472C90.9227 70.6848 89.9035 70.2504 88.8362 70.2395C87.7689 70.2286 86.741 70.6421 85.9786 71.3891C85.2162 72.1361 84.7818 73.1554 84.7709 74.2227L87.7547 74.6561L85.7489 76.9334Z" fill="#232323"/>
<path d="M47.2539 72.7316C47.2539 76.4083 48.7144 79.9345 51.3143 82.5343C53.9141 85.1341 57.4403 86.5947 61.117 86.5947C64.7937 86.5947 68.3199 85.1341 70.9197 82.5343C73.5196 79.9345 74.9801 76.4083 74.9801 72.7316C74.9801 69.0548 73.5196 65.5287 70.9197 62.9289C68.3199 60.329 64.7937 58.8684 61.117 58.8684C57.4403 58.8684 53.9141 60.329 51.3143 62.9289C48.7144 65.5287 47.2539 69.0548 47.2539 72.7316Z" fill="white"/>
<path d="M61.117 88.9636C52.1512 88.9636 44.8825 81.6958 44.8825 72.7315C44.8825 63.7673 52.1512 56.5003 61.117 56.5003C70.0828 56.5003 77.3506 63.7673 77.3506 72.7315C77.3506 81.6958 70.0828 88.9636 61.117 88.9636ZM61.117 84.2273C67.4668 84.2273 72.6143 79.0805 72.6143 72.7323C72.6143 66.3833 67.4668 61.2365 61.117 61.2365C54.7664 61.2365 49.6188 66.3833 49.6188 72.7315C49.6188 79.0798 54.7664 84.2273 61.117 84.2273Z" fill="#524F75"/>
<path d="M62.1803 77.782C62.8488 78.5564 63.7673 79.0723 64.7764 79.2401C65.7856 79.4079 66.8216 79.2171 67.7048 78.7008C68.5879 78.1845 69.2624 77.3752 69.6112 76.4135C69.9599 75.4518 69.961 74.3983 69.6141 73.4359C69.2672 72.4735 68.5943 71.663 67.7121 71.1449C66.83 70.6269 65.7943 70.4341 64.7848 70.6C63.7754 70.7658 62.8558 71.2799 62.1858 72.053C61.5158 72.8261 61.1377 73.8093 61.117 74.8321L64.3629 75.3042L62.1803 77.782Z" fill="#232323"/>
<path d="M47.9912 90.5621C29.6909 84.5423 18.5922 81.3721 14.3122 80.9814C13.9993 80.9467 13.6826 80.9748 13.3807 81.064C13.0788 81.1531 12.7977 81.3016 12.5538 81.5007C12.31 81.6998 12.1082 81.9455 11.9605 82.2235C11.8127 82.5014 11.7218 82.8061 11.6932 83.1196C11.6645 83.4331 11.6987 83.7492 11.7936 84.0493C11.8885 84.3495 12.0424 84.6277 12.2461 84.8677C12.4498 85.1077 12.6993 85.3046 12.9801 85.4471C13.2608 85.5895 13.5672 85.6745 13.8812 85.6971C17.6418 86.0413 28.6466 89.1846 46.5103 95.0608C46.8057 95.158 47.1173 95.1961 47.4274 95.1729C47.7376 95.1497 48.0401 95.0657 48.3177 94.9256C48.5953 94.7854 48.8426 94.592 49.0455 94.3563C49.2484 94.1206 49.4028 93.8473 49.5001 93.5519C49.5973 93.2565 49.6354 92.9449 49.6122 92.6347C49.589 92.3246 49.5049 92.0221 49.3648 91.7445C49.2247 91.4669 49.0313 91.2196 48.7956 91.0167C48.5599 90.8138 48.2866 90.6593 47.9912 90.5621ZM105.714 90.5621C124.015 84.5423 135.112 81.3713 139.393 80.9806C140.012 80.936 140.623 81.1358 141.096 81.5372C141.569 81.9386 141.865 82.5094 141.922 83.1271C141.978 83.7447 141.79 84.3598 141.398 84.8403C141.006 85.3207 140.44 85.6281 139.824 85.6964C136.063 86.0405 125.059 89.1838 107.194 95.06C106.899 95.1572 106.587 95.1953 106.277 95.172C105.967 95.1488 105.665 95.0647 105.387 94.9246C104.827 94.6416 104.401 94.1476 104.205 93.5511C104.009 92.9546 104.058 92.3046 104.34 91.7441C104.623 91.1836 105.118 90.7584 105.714 90.5621ZM140.242 100.748C140.441 100.728 140.582 100.712 140.684 100.698C140.74 100.69 140.74 100.69 140.826 100.675C140.923 100.664 140.923 100.664 141.402 100.493C141.653 100.382 141.653 100.382 142.188 99.91C142.536 99.4734 142.536 99.4735 142.766 98.6162C142.727 97.6137 142.727 97.6137 142.305 96.9158C141.537 96.2093 141.537 96.2093 141.185 96.1012C140.94 96.0286 140.94 96.0286 140.81 96.0049C140.516 95.9694 140.516 95.9694 140.429 95.9694C140.25 95.9662 139.953 95.9812 139.348 96.0183C138.314 96.0815 136.433 96.2093 133.696 96.4027C128.235 96.7888 119.366 97.4361 107.085 98.3438C106.775 98.3668 106.472 98.4506 106.195 98.5905C105.917 98.7304 105.669 98.9237 105.466 99.1592C105.263 99.3948 105.108 99.668 105.011 99.9634C104.914 100.259 104.875 100.57 104.898 100.881C104.921 101.191 105.005 101.493 105.145 101.771C105.285 102.049 105.478 102.296 105.714 102.499C105.949 102.702 106.222 102.857 106.518 102.955C106.813 103.052 107.125 103.09 107.435 103.068C116.299 102.408 125.164 101.762 134.03 101.127C136.751 100.935 138.621 100.808 139.636 100.746C139.885 100.763 140.062 100.766 140.242 100.748ZM140.348 100.706C140.289 100.706 140.289 100.706 140.011 100.673C139.883 100.65 139.883 100.65 139.641 100.579C139.291 100.47 139.291 100.47 138.522 99.7655C138.101 99.0677 138.101 99.0677 138.062 98.066C138.292 97.2087 138.292 97.2087 138.64 96.773C139.174 96.3009 139.174 96.3009 139.423 96.1912C139.891 96.0246 139.891 96.0246 139.965 96.0183L140.029 96.0073C140.006 96.0112 139.911 96.0215 139.77 96.0357C139.145 96.0983 138.571 96.4065 138.173 96.8926C137.775 97.3787 137.586 98.0029 137.648 98.628C137.702 99.1618 137.935 99.6616 138.31 100.046C138.685 100.43 139.179 100.675 139.711 100.742C140.089 100.719 140.354 100.706 140.348 100.706ZM75.6685 118.072V131.492C75.6685 132.12 75.918 132.722 76.3621 133.166C76.8062 133.61 77.4086 133.86 78.0367 133.86C78.6647 133.86 79.2671 133.61 79.7112 133.166C80.1553 132.722 80.4048 132.12 80.4048 131.492V118.072C80.4048 117.444 80.1553 116.842 79.7112 116.398C79.2671 115.953 78.6647 115.704 78.0367 115.704C77.4086 115.704 76.8062 115.953 76.3621 116.398C75.918 116.842 75.6685 117.444 75.6685 118.072ZM18.0444 102.353C35.305 102.344 45.8322 102.322 49.6418 102.284C50.2698 102.278 50.8697 102.023 51.3094 101.574C51.749 101.126 51.9925 100.521 51.9862 99.8926C51.98 99.2645 51.7244 98.6647 51.2759 98.225C50.8273 97.7853 50.2225 97.5419 49.5944 97.5481C45.8062 97.586 35.2837 97.6089 18.0412 97.6168C17.7302 97.617 17.4223 97.6785 17.1351 97.7977C16.8478 97.9169 16.5869 98.0915 16.3671 98.3115C16.1474 98.5316 15.9731 98.7928 15.8543 99.0802C15.7355 99.3676 15.6744 99.6756 15.6746 99.9865C15.6748 100.298 15.7363 100.605 15.8555 100.893C15.9747 101.18 16.1493 101.441 16.3694 101.661C16.5894 101.88 16.8506 102.055 17.138 102.173C17.4254 102.292 17.7334 102.353 18.0444 102.353Z" fill="#524F75"/>
</svg>
