<svg width="250" height="250" viewBox="0 0 250 250" fill="none" xmlns="http://www.w3.org/2000/svg">
<g clip-path="url(#clip0_1_207)">
<rect width="250" height="250" rx="125" fill="#FFE281"/>
<path d="M247.818 77.1833C245.892 76.5226 243.949 75.9105 241.992 75.3476C242.321 74.0046 242.624 72.6778 242.892 71.3743C247.303 49.9698 244.419 32.7259 234.571 27.0484C225.129 21.6055 209.686 27.2809 194.091 40.8506C192.554 42.1903 191.051 43.5687 189.583 44.9843C188.601 44.043 187.601 43.1199 186.585 42.2155C170.24 27.7065 153.856 21.5914 144.019 27.2852C134.585 32.745 131.791 48.9555 135.762 69.241C136.157 71.2501 136.603 73.2488 137.1 75.2352C134.781 75.894 132.543 76.5952 130.401 77.3417C111.238 84.0215 99 94.4895 99 105.348C99 116.562 112.138 127.81 132.098 134.631C133.716 135.182 135.347 135.692 136.991 136.161C136.457 138.301 135.983 140.455 135.57 142.621C131.784 162.554 134.74 178.381 144.149 183.807C153.866 189.409 170.176 183.651 186.057 169.772C187.345 168.643 188.604 167.483 189.834 166.292C191.423 167.825 193.054 169.313 194.726 170.755C210.11 183.989 225.303 189.333 234.702 183.893C244.41 178.274 247.566 161.271 243.469 140.585C243.146 138.964 242.785 137.352 242.384 135.748C243.529 135.409 244.653 135.06 245.749 134.697C266.499 127.824 280 116.712 280 105.348C280 94.4499 267.367 83.9113 247.818 77.1833ZM243.318 127.359C242.328 127.687 241.313 128.003 240.278 128.31C237.987 121.06 234.896 113.351 231.112 105.385C234.722 97.6096 237.695 89.9988 239.921 82.7958C241.773 83.3316 243.57 83.8964 245.302 84.4923C262.051 90.2575 272.268 98.7801 272.268 105.348C272.268 112.343 261.234 121.424 243.318 127.359ZM235.884 142.086C237.695 151.233 237.954 159.503 236.754 165.969C235.676 171.779 233.508 175.652 230.827 177.203C225.124 180.504 212.925 176.213 199.77 164.895C198.214 163.555 196.697 162.171 195.218 160.746C200.319 155.169 205.416 148.687 210.391 141.487C219.141 140.711 227.407 139.441 234.904 137.709C235.265 139.16 235.592 140.619 235.884 142.086ZM160.707 176.633C155.134 178.6 150.695 178.656 148.012 177.11C142.303 173.818 139.929 161.109 143.167 144.063C143.552 142.048 143.992 140.045 144.488 138.055C151.902 139.695 160.109 140.874 168.879 141.585C173.888 148.63 179.132 155.106 184.417 160.776C183.294 161.863 182.144 162.922 180.969 163.952C173.946 170.089 166.909 174.443 160.707 176.633ZM134.599 127.316C125.773 124.3 118.484 120.38 113.488 116.103C108.999 112.26 106.733 108.444 106.733 105.348C106.733 98.7582 116.558 90.3536 132.947 84.6415C134.936 83.9487 137.017 83.2949 139.177 82.6813C141.442 90.0468 144.413 97.7481 147.999 105.536C144.367 113.438 141.353 121.263 139.066 128.715C137.566 128.285 136.076 127.819 134.599 127.316ZM143.351 67.7559C139.949 50.3763 142.208 37.2661 147.893 33.9756C153.948 30.471 167.338 35.4678 181.451 47.9963C182.371 48.8151 183.277 49.6505 184.167 50.5021C178.908 56.1478 173.712 62.5753 168.748 69.5789C160.235 70.3678 152.087 71.6345 144.595 73.3316C144.133 71.4841 143.719 69.6244 143.351 67.7559ZM221.426 87.0307C219.656 83.9748 217.821 80.9575 215.922 77.9807C221.697 78.7109 227.23 79.68 232.426 80.8647C230.866 85.8636 228.922 91.0895 226.633 96.4475C224.96 93.2742 223.224 90.1346 221.426 87.0307ZM189.587 56.0269C193.153 59.8899 196.725 64.2025 200.238 68.8819C193.112 68.5454 185.973 68.544 178.846 68.8777C182.363 64.2414 185.965 59.9345 189.587 56.0269ZM157.544 87.0837C155.768 90.1627 154.064 93.2827 152.434 96.4411C150.183 91.1022 148.256 85.8523 146.683 80.7827C151.847 79.6277 157.354 78.6833 163.092 77.9666C161.172 80.9615 159.322 84.0019 157.544 87.0837ZM163.257 133.279C157.329 132.617 151.739 131.721 146.576 130.597C148.174 125.437 150.143 120.076 152.443 114.622C154.08 117.783 155.791 120.905 157.574 123.985C159.408 127.152 161.307 130.254 163.257 133.279ZM189.8 155.213C186.135 151.26 182.48 146.886 178.91 142.183C182.376 142.319 185.909 142.388 189.5 142.388C193.189 142.388 196.836 142.305 200.426 142.145C196.901 146.934 193.343 151.314 189.8 155.213ZM226.706 114.344C229.126 119.857 231.165 125.191 232.784 130.262C227.536 131.46 221.87 132.424 215.9 133.14C217.813 130.108 219.665 127.038 221.456 123.932C223.277 120.776 225.028 117.579 226.706 114.344ZM214.759 120.07C212.017 124.832 209.121 129.503 206.076 134.077C200.559 134.467 195.03 134.661 189.5 134.658C183.867 134.658 178.388 134.483 173.112 134.141C169.988 129.578 167.036 124.899 164.265 120.113C161.507 115.352 158.932 110.488 156.543 105.532C158.926 100.575 161.494 95.7088 164.243 90.9446L164.242 90.9453C166.99 86.1798 169.917 81.5203 173.018 76.9769C178.401 76.5698 183.921 76.3577 189.499 76.3577C195.103 76.3577 200.631 76.5719 206.012 76.9819C209.082 81.5184 211.991 86.1619 214.733 90.9036C217.491 95.6574 220.093 100.5 222.536 105.423C220.118 110.396 217.524 115.281 214.759 120.07ZM230.709 33.7452C236.77 37.2399 239.127 51.3327 235.319 69.8136C235.076 70.9926 234.803 72.1936 234.506 73.4115C226.996 71.6783 218.842 70.3897 210.304 69.5888C205.331 62.5082 200.178 56.0708 195.004 50.4978C196.36 49.1912 197.748 47.9185 199.167 46.6808C212.53 35.055 225.019 30.4646 230.709 33.7452ZM189.5 89.1887C198.426 89.1887 205.663 96.4235 205.663 105.348C205.663 114.272 198.426 121.507 189.5 121.507C180.574 121.507 173.337 114.272 173.337 105.348C173.337 96.4235 180.574 89.1887 189.5 89.1887Z" fill="#00D8FF" fill-opacity="0.45"/>
<path d="M127.094 181.113C150.81 179.805 168.333 178.734 179.665 177.903C196.663 176.655 201.263 183.76 201.492 189.609C201.722 195.458 189.31 204.148 186.746 205.162C184.182 206.177 176.93 203.612 181.649 199.626C186.368 195.639 198.144 186.14 181.649 186.14C170.652 186.14 152.468 191.224 127.094 201.392V181.113Z" fill="white"/>
<path d="M129.599 197.702C153.467 188.33 170.758 183.634 181.649 183.634C187.434 183.634 190.902 184.716 192.198 187.441C193.388 189.948 192.305 192.511 189.857 195.374C188.993 196.386 187.956 197.428 186.728 198.548C186.116 199.104 185.496 199.65 184.866 200.185C184.606 200.409 184.343 200.63 184.018 200.904L183.265 201.539C183.064 201.702 182.88 201.887 182.717 202.088C182.753 202.116 182.794 202.144 182.84 202.175C183.725 202.755 185.342 203.024 185.823 202.834C187.048 202.349 190.688 199.838 193.497 197.33C196.996 194.207 199.051 191.306 198.987 189.707C198.884 187.09 197.746 184.797 195.412 183.136C192.295 180.916 187.182 179.862 179.847 180.401C168.879 181.206 152.131 182.233 129.599 183.483V197.702ZM126.957 178.612C150.658 177.303 168.168 176.235 179.481 175.404C195.344 174.24 203.627 180.136 203.995 189.511C204.137 193.132 201.404 196.989 196.834 201.068C193.623 203.935 189.537 206.753 187.667 207.492C185.55 208.33 182.256 207.784 180.092 206.363C176.889 204.262 176.626 200.589 180.033 197.711L180.79 197.073C181.106 196.807 181.361 196.591 181.611 196.377C182.2 195.875 182.78 195.365 183.352 194.845C184.439 193.854 185.338 192.951 186.049 192.118C187.307 190.647 187.714 189.682 187.671 189.592C187.658 189.564 187.424 189.396 186.748 189.185C185.643 188.841 183.945 188.645 181.649 188.645C171.063 188.645 153.12 193.662 128.025 203.718L124.589 205.093V178.742L126.957 178.612Z" fill="white"/>
<path d="M185.405 202.022C186.471 203.289 187.031 204.905 186.979 206.56C186.926 208.215 186.265 209.792 185.121 210.989L175.351 221.214L175.948 212.171L164.595 216.808L171.257 208.056L164.601 204.915L176.018 199.853C177.606 199.149 179.38 198.98 181.073 199.371C182.766 199.762 184.286 200.692 185.405 202.022Z" fill="white"/>
<path d="M183.298 209.56C184.041 208.834 184.491 207.86 184.56 206.824C184.629 205.788 184.313 204.763 183.672 203.945C182.936 203.004 181.913 202.329 180.759 202.019C179.605 201.71 178.382 201.783 177.274 202.229L170.768 204.846L172.443 205.709C172.775 205.88 173.064 206.123 173.289 206.42C173.515 206.717 173.671 207.061 173.747 207.426C173.823 207.791 173.816 208.169 173.727 208.531C173.639 208.894 173.47 209.232 173.234 209.52L172.086 210.925L174.972 209.862C176.71 209.222 178.517 210.623 178.331 212.465L178.114 214.621L183.298 209.56ZM163.606 206.793C161.7 205.81 161.829 203.042 163.819 202.242L175.403 197.582C177.519 196.731 179.854 196.59 182.056 197.181C184.259 197.771 186.211 199.061 187.617 200.856C189.019 202.646 189.71 204.89 189.559 207.158C189.408 209.426 188.425 211.558 186.799 213.146L176.676 223.023C175.001 224.657 172.2 223.306 172.435 220.978L172.943 215.949L165.197 218.802C162.803 219.684 160.777 216.84 162.392 214.865L167.397 208.746L163.606 206.793Z" fill="white"/>
<path d="M50.6015 165.205L70.4873 171.631L76.0093 187.762C78.7063 195.642 74.5062 204.215 66.6271 206.913C65.0551 207.451 63.4048 207.726 61.7431 207.726H54.076C50.2687 207.726 46.5758 206.425 43.6091 204.039C40.6424 201.652 38.5801 198.324 37.7641 194.605L34.5167 179.809C33.0337 173.053 37.309 166.373 44.0651 164.891C46.2332 164.414 48.4891 164.523 50.6015 165.205Z" fill="white"/>
<path d="M68.5241 173.629L49.8315 167.589C48.1418 167.043 46.3373 166.956 44.6027 167.336C39.1968 168.524 35.7775 173.867 36.964 179.272L40.2114 194.069C40.9052 197.229 42.6583 200.058 45.18 202.086C47.7017 204.115 50.8406 205.22 54.0767 205.22H61.7438C63.1299 205.22 64.5052 204.99 65.8162 204.542C72.386 202.293 75.8889 195.144 73.6402 188.574L68.5241 173.629ZM51.3713 162.822L72.4512 169.633L78.3798 186.952C81.5252 196.14 76.6262 206.138 67.4386 209.282C65.6056 209.91 63.6814 210.231 61.7438 210.231H54.0767C49.6985 210.231 45.4517 208.735 42.0401 205.991C38.6285 203.247 36.2569 199.42 35.3182 195.143L32.07 180.347C30.2906 172.239 35.4201 164.223 43.5281 162.444C46.1297 161.872 48.8366 162.002 51.3713 162.822Z" fill="white"/>
<path d="M49.2746 193.866H65.4354C70.4346 193.866 74.4869 197.92 74.4869 202.918C74.4869 207.916 70.4338 211.969 65.4354 211.969H49.2746C44.2754 211.969 40.2231 207.916 40.2231 202.918C40.2231 197.919 44.2754 193.866 49.2746 193.866Z" fill="white"/>
<path d="M42.7282 202.918C42.7282 204.654 43.4179 206.319 44.6456 207.547C45.8733 208.775 47.5384 209.464 49.2746 209.464H65.4355C67.1717 209.464 68.8368 208.775 70.0645 207.547C71.2922 206.319 71.9819 204.654 71.9819 202.918C71.9819 201.182 71.2922 199.517 70.0645 198.289C68.8368 197.061 67.1717 196.371 65.4355 196.371H49.2746C47.5384 196.371 45.8733 197.061 44.6456 198.289C43.4179 199.517 42.7282 201.182 42.7282 202.918ZM49.2746 191.361H65.4355C71.8183 191.361 76.992 196.535 76.992 202.918C76.992 209.301 71.8174 214.475 65.4355 214.475H49.2746C42.8918 214.475 37.7181 209.3 37.7181 202.918C37.7181 196.536 42.8918 191.361 49.2746 191.361Z" fill="white"/>
<path d="M48.6201 203.782V210.456C48.6201 211.12 48.884 211.757 49.3538 212.227C49.8236 212.697 50.4607 212.961 51.1251 212.961C51.7895 212.961 52.4266 212.697 52.8964 212.227C53.3662 211.757 53.6301 211.12 53.6301 210.456V203.782C53.6301 203.118 53.3662 202.481 52.8964 202.011C52.4266 201.541 51.7895 201.277 51.1251 201.277C50.4607 201.277 49.8236 201.541 49.3538 202.011C48.884 202.481 48.6201 203.118 48.6201 203.782Z" fill="white"/>
<path d="M145.971 165.205L126.085 171.631L120.563 187.762C117.866 195.642 122.067 204.215 129.945 206.913C131.517 207.451 133.168 207.726 134.83 207.726H142.497C146.304 207.726 149.997 206.425 152.964 204.039C155.931 201.652 157.993 198.324 158.809 194.605L162.056 179.809C163.539 173.053 159.263 166.373 152.508 164.891C150.34 164.414 148.084 164.523 145.971 165.205Z" fill="white"/>
<path d="M146.741 167.589C148.431 167.043 150.236 166.956 151.97 167.336C157.376 168.524 160.795 173.867 159.609 179.272L156.362 194.069C155.668 197.23 153.914 200.059 151.393 202.087C148.871 204.115 145.732 205.221 142.496 205.221H134.829C133.443 205.221 132.067 204.991 130.757 204.543C124.186 202.294 120.683 195.145 122.932 188.575L128.049 173.629L146.741 167.589ZM145.202 162.822L124.122 169.632L118.193 186.951C115.048 196.139 119.947 206.137 129.135 209.282C130.968 209.91 132.892 210.23 134.83 210.23H142.497C146.875 210.23 151.122 208.734 154.534 205.99C157.945 203.246 160.317 199.419 161.256 195.142L164.503 180.347C166.283 172.239 161.152 164.223 153.045 162.444C150.443 161.872 147.736 162.002 145.202 162.822Z" fill="white"/>
<path d="M147.298 193.866H131.137C126.138 193.866 122.085 197.92 122.085 202.918C122.085 207.916 126.138 211.969 131.137 211.969H147.298C152.297 211.969 156.35 207.916 156.35 202.918C156.35 197.919 152.297 193.866 147.298 193.866Z" fill="white"/>
<path d="M147.298 196.371C149.035 196.371 150.7 197.061 151.927 198.289C153.155 199.517 153.845 201.182 153.845 202.918C153.845 204.654 153.155 206.319 151.927 207.547C150.7 208.775 149.035 209.464 147.298 209.464H131.137C129.401 209.464 127.736 208.775 126.508 207.547C125.281 206.319 124.591 204.654 124.591 202.918C124.591 201.182 125.281 199.517 126.508 198.289C127.736 197.061 129.401 196.371 131.137 196.371H147.298ZM147.298 191.361H131.137C124.755 191.361 119.58 196.535 119.58 202.918C119.58 209.301 124.755 214.475 131.137 214.475H147.298C153.681 214.475 158.855 209.3 158.855 202.918C158.855 196.536 153.681 191.361 147.298 191.361Z" fill="white"/>
<path d="M147.953 203.782V210.456C147.936 211.109 147.665 211.73 147.197 212.186C146.729 212.642 146.101 212.897 145.448 212.897C144.795 212.897 144.167 212.642 143.699 212.186C143.231 211.73 142.96 211.109 142.943 210.456V203.782C142.943 203.118 143.207 202.481 143.677 202.011C144.146 201.541 144.784 201.277 145.448 201.277C146.112 201.277 146.75 201.541 147.219 202.011C147.689 202.481 147.953 203.118 147.953 203.782Z" fill="white"/>
<path d="M56.1184 138.55H139.62V190.321C139.62 199.544 132.143 207.021 122.919 207.021H72.8186C63.5951 207.021 56.1184 199.544 56.1184 190.321V138.55Z" fill="white"/>
<path d="M58.6234 190.321C58.6234 198.161 64.9787 204.516 72.8186 204.516H122.919C130.759 204.516 137.114 198.161 137.114 190.321V141.055H58.6234V190.321ZM142.125 136.045V190.321C142.125 200.928 133.526 209.526 122.919 209.526H72.8186C62.2115 209.526 53.6133 200.928 53.6133 190.321V136.045H142.125Z" fill="white"/>
<path d="M90.3463 169.446H104.56C112.393 169.446 118.744 175.796 118.744 183.629C118.744 184.759 118.609 185.884 118.343 186.981L118.008 188.36C116.888 192.967 114.252 197.064 110.525 199.994C106.798 202.924 102.194 204.516 97.4531 204.516C92.7121 204.516 88.1086 202.924 84.3811 199.994C80.6537 197.064 78.0185 192.967 76.8985 188.36L76.5636 186.981C74.7132 179.369 79.3835 171.698 86.9954 169.847C88.0925 169.58 89.2174 169.446 90.3463 169.446Z" fill="white"/>
<path d="M82.4212 215.771C74.8552 215.771 68.7938 209.869 66.5835 200.958L65.3686 183.737C65.3219 183.074 65.0138 182.457 64.512 182.021C64.0103 181.586 63.356 181.367 62.6932 181.414C62.0304 181.461 61.4133 181.769 60.9776 182.27C60.542 182.772 60.3235 183.426 60.3702 184.089L61.6152 201.73L61.6637 201.931C64.3298 213.021 72.2274 220.781 82.4212 220.781C92.4422 220.781 97.5466 214.281 99.9957 201.83L100.017 201.702L100.639 197.372C100.733 196.714 100.562 196.046 100.164 195.514C99.7654 194.982 99.1721 194.63 98.5144 194.536C97.8567 194.442 97.1884 194.613 96.6566 195.011C96.1248 195.409 95.773 196.003 95.6787 196.66L95.0675 200.926C93.0233 211.265 89.4704 215.771 82.4212 215.771Z" fill="white"/>
<path d="M74.3675 208.029H90.4741C95.4808 208.029 99.5389 212.087 99.5389 217.093C99.5389 222.099 95.4808 226.157 90.4749 226.157H74.3675C69.3616 226.158 65.3035 222.099 65.3035 217.093C65.3035 212.087 69.3616 208.029 74.3675 208.029Z" fill="white"/>
<path d="M74.3676 210.534C70.7453 210.534 67.8086 213.47 67.8086 217.093C67.8086 220.716 70.7453 223.652 74.3676 223.652H90.4742C92.2137 223.652 93.882 222.961 95.1121 221.731C96.3421 220.501 97.0332 218.833 97.0332 217.093C97.0332 215.354 96.3421 213.685 95.1121 212.455C93.882 211.225 92.2137 210.534 90.4742 210.534H74.3676ZM74.3676 205.524H90.4742C96.8637 205.524 102.044 210.704 102.044 217.093C102.044 223.483 96.8637 228.662 90.475 228.662H74.3676C67.9789 228.663 62.7985 223.484 62.7985 217.093C62.7985 210.703 67.9789 205.524 74.3676 205.524Z" fill="white"/>
<path d="M73.6912 217.96V224.642C73.6912 225.306 73.9551 225.943 74.4249 226.413C74.8947 226.883 75.5319 227.147 76.1963 227.147C76.8606 227.147 77.4978 226.883 77.9676 226.413C78.4374 225.943 78.7013 225.306 78.7013 224.642V217.96C78.7013 217.295 78.4374 216.658 77.9676 216.189C77.4978 215.719 76.8606 215.455 76.1963 215.455C75.5319 215.455 74.8947 215.719 74.4249 216.189C73.9551 216.658 73.6912 217.295 73.6912 217.96ZM86.1412 217.96V224.642C86.1412 225.306 86.4052 225.943 86.875 226.413C87.3447 226.883 87.9819 227.147 88.6463 227.147C89.3107 227.147 89.9478 226.883 90.4176 226.413C90.8874 225.943 91.1513 225.306 91.1513 224.642V217.96C91.1513 217.295 90.8874 216.658 90.4176 216.189C89.9478 215.719 89.3107 215.455 88.6463 215.455C87.9819 215.455 87.3447 215.719 86.875 216.189C86.4052 216.658 86.1412 217.295 86.1412 217.96Z" fill="white"/>
<path d="M131.036 182.56C131.069 182.232 131.166 181.915 131.322 181.625C131.478 181.335 131.689 181.079 131.944 180.871C132.199 180.663 132.493 180.507 132.808 180.413C133.123 180.318 133.453 180.286 133.781 180.32C134.108 180.353 134.426 180.45 134.715 180.606C135.005 180.762 135.261 180.973 135.469 181.228C135.677 181.483 135.833 181.777 135.928 182.092C136.022 182.407 136.054 182.737 136.021 183.065L134.085 202.182L134.043 202.352C131.298 213.569 124.991 220.153 114.938 220.153C109.646 220.153 105.63 218.124 102.793 214.245C100.514 211.131 99.0581 207.011 97.8874 201.192L96.0921 194.644C96.0051 194.327 95.9815 193.995 96.0226 193.669C96.0637 193.342 96.1687 193.027 96.3315 192.741C96.6605 192.164 97.2052 191.741 97.846 191.566C98.4868 191.39 99.1711 191.476 99.7484 191.805C100.326 192.134 100.749 192.679 100.924 193.32L102.743 199.95L102.784 200.122C104.923 210.81 108.093 215.143 114.94 215.143C122.298 215.143 126.871 210.412 129.137 201.326L131.036 182.56Z" fill="white"/>
<path d="M108.444 209.253H124.87C129.788 209.253 133.774 213.24 133.774 218.157C133.774 223.075 129.788 227.062 124.87 227.062H108.444C103.525 227.062 99.539 223.075 99.539 218.157C99.539 213.24 103.525 209.253 108.444 209.253Z" fill="white"/>
<path d="M108.444 211.758C106.746 211.758 105.119 212.432 103.919 213.632C102.719 214.833 102.044 216.46 102.044 218.157C102.044 219.854 102.719 221.482 103.919 222.682C105.119 223.882 106.746 224.556 108.444 224.556H124.87C126.554 224.537 128.163 223.855 129.348 222.657C130.532 221.459 131.196 219.842 131.196 218.157C131.196 216.473 130.532 214.856 129.348 213.658C128.163 212.46 126.554 211.777 124.87 211.758H108.444ZM108.444 206.748H124.87C131.172 206.748 136.28 211.856 136.28 218.157C136.28 224.459 131.172 229.567 124.87 229.567H108.444C102.142 229.567 97.034 224.459 97.034 218.157C97.034 211.856 102.142 206.748 108.444 206.748Z" fill="white"/>
<path d="M107.927 217.338V223.902C107.944 224.555 108.215 225.176 108.683 225.632C109.151 226.088 109.778 226.343 110.432 226.343C111.085 226.343 111.713 226.088 112.181 225.632C112.649 225.176 112.92 224.555 112.937 223.902V217.338C112.937 216.673 112.673 216.036 112.203 215.566C111.733 215.097 111.096 214.833 110.432 214.833C109.767 214.833 109.13 215.097 108.66 215.566C108.191 216.036 107.927 216.673 107.927 217.338ZM120.377 217.338V223.902C120.377 224.566 120.641 225.203 121.11 225.673C121.58 226.143 122.217 226.407 122.882 226.407C123.546 226.407 124.183 226.143 124.653 225.673C125.123 225.203 125.387 224.566 125.387 223.902V217.338C125.387 216.673 125.123 216.036 124.653 215.566C124.183 215.097 123.546 214.833 122.882 214.833C122.217 214.833 121.58 215.097 121.11 215.566C120.641 216.036 120.377 216.673 120.377 217.338Z" fill="white"/>
<path d="M95.3639 186.981C95.3639 187.867 95.7158 188.716 96.3422 189.343C96.9686 189.969 97.8181 190.321 98.7039 190.321C99.5898 190.321 100.439 189.969 101.066 189.343C101.692 188.716 102.044 187.867 102.044 186.981C102.044 186.095 101.692 185.246 101.066 184.619C100.439 183.993 99.5898 183.641 98.7039 183.641C97.8181 183.641 96.9686 183.993 96.3422 184.619C95.7158 185.246 95.3639 186.095 95.3639 186.981Z" fill="white"/>
<path d="M68.763 29.3917C80.7321 26.1185 91.5956 24.6789 101.353 25.0739C108.653 25.3695 116.2 26.2095 123.992 27.5923C145.885 31.4784 162.971 48.7097 166.671 70.6346L172.088 102.733C176.917 131.35 157.66 158.471 129.051 163.346C119.368 164.996 110.995 165.907 103.935 166.08C95.0967 166.296 83.5753 165.135 69.3709 162.599C41.7061 157.657 22.8106 131.843 26.4613 103.979L30.4802 73.3C33.2341 52.2894 48.3236 34.9821 68.763 29.3917Z" fill="white"/>
<path d="M68.763 29.3917C48.3236 34.9821 33.2341 52.2894 30.481 73.3L26.4621 103.979C22.8115 131.843 41.7069 157.657 69.3717 162.599C83.5752 165.135 95.0967 166.296 103.936 166.08C110.996 165.907 119.369 164.995 129.052 163.346C157.661 158.471 176.918 131.35 172.089 102.733L166.671 70.6346C162.971 48.7097 145.885 31.4784 123.993 27.5923C116.201 26.2095 108.654 25.3695 101.354 25.0739C91.5955 24.6789 80.7329 26.1185 68.763 29.3917ZM67.442 24.5587C79.8811 21.1568 91.2507 19.6505 101.556 20.068C109.086 20.3728 116.858 21.237 124.868 22.659C148.846 26.9151 167.559 45.7872 171.611 69.8004L177.028 101.899C182.317 133.241 161.226 162.946 129.892 168.283C119.988 169.971 111.382 170.909 104.058 171.087C94.8345 171.314 82.9982 170.121 68.4907 167.529C38.1907 162.118 17.4958 133.845 21.4938 103.327L25.5127 72.6478C28.5279 49.6383 45.0553 30.6818 67.442 24.5587Z" fill="white"/>
<path d="M96.6515 50.8741H107.641C127.868 50.8741 145.05 65.6972 148.046 85.7333L150.495 102.108C157.707 140.057 140.667 151.58 111.383 155.086C109.752 155.281 108.123 155.487 106.482 155.557L95.647 156.022C70.7361 157.089 48.8738 144.867 48.6108 112.778C48.5907 110.379 48.5966 107.981 48.8738 105.599L51.0014 87.3449C53.3177 67.4741 69.6397 52.1934 89.5906 51.2189L96.6515 50.8741Z" fill="white"/>
<path d="M89.7126 53.7214C70.9858 54.6366 55.6642 68.9804 53.4898 87.6354L51.3614 105.89C51.1401 107.791 51.0891 109.603 51.115 112.758C51.343 140.621 68.7889 154.666 95.5393 153.519L106.374 153.054C107.557 153.003 108.524 152.906 110.728 152.641L111.086 152.598C126.519 150.751 136.683 146.82 142.735 139.868C149.463 132.142 151.382 120.198 148.034 102.575L145.569 86.1032C142.756 67.2946 126.626 53.3791 107.641 53.3791H96.7133L89.7126 53.7214ZM146.513 143.158C139.474 151.245 128.23 155.592 111.68 157.574L111.326 157.616C108.995 157.897 107.942 158.003 106.588 158.06L95.7531 158.525C66.3398 159.786 46.358 143.7 46.105 112.799C46.0774 109.449 46.1334 107.474 46.3847 105.31L48.5131 87.0559C50.9714 65.9685 68.2929 49.7526 89.4679 48.718L96.5296 48.3723L107.641 48.369C129.108 48.369 147.343 64.1015 150.523 85.3625L152.965 101.69C156.561 120.657 154.392 134.108 146.513 143.158Z" fill="white"/>
<path d="M93.4977 106.688C95.1293 104.572 97.0757 103.503 99.3369 103.48C101.598 103.456 103.546 104.526 105.179 106.688C106.994 111.434 108.093 114.723 108.474 116.554C108.856 118.387 109.218 122.101 109.559 127.695H89.8478C89.4094 123.594 89.4094 120.284 89.8478 117.762C90.2862 115.24 91.502 111.548 93.4977 106.688Z" fill="white"/>
<path d="M92.0682 125.36C96.2733 124.69 99.0213 124.355 100.312 124.355C101.647 124.355 104.861 124.713 109.952 125.431C110.616 125.524 111.249 125.768 111.805 126.144C112.36 126.52 112.822 127.018 113.155 127.6C113.488 128.182 113.684 128.832 113.728 129.502C113.771 130.171 113.661 130.841 113.406 131.461C112.755 133.045 111.686 134.423 110.314 135.447C108.941 136.471 107.317 137.104 105.613 137.277C102.742 137.57 100.974 137.715 100.312 137.715C99.5357 137.715 97.2135 137.515 93.3449 137.113C92.1372 136.988 90.9984 136.489 90.0869 135.687C89.1753 134.885 88.5361 133.819 88.258 132.637L87.98 131.454C87.8221 130.784 87.8043 130.088 87.9275 129.411C88.0506 128.733 88.3122 128.088 88.6959 127.516C89.0795 126.944 89.577 126.457 90.1573 126.086C90.7375 125.715 91.388 125.468 92.0682 125.36Z" fill="white"/>
<path d="M92.2837 127.869C91.637 128.021 91.0773 128.424 90.7277 128.989C90.378 129.553 90.267 130.234 90.4191 130.881L90.6971 132.064C90.8561 132.739 91.2214 133.348 91.7423 133.806C92.2632 134.264 92.9138 134.549 93.6038 134.621C97.358 135.011 99.6635 135.209 100.313 135.209C100.854 135.209 102.591 135.066 105.36 134.783C106.613 134.656 107.808 134.191 108.817 133.438C109.827 132.684 110.613 131.671 111.091 130.507C111.201 130.239 111.248 129.951 111.229 129.663C111.21 129.375 111.125 129.095 110.982 128.844C110.838 128.594 110.639 128.379 110.4 128.218C110.161 128.056 109.888 127.951 109.602 127.911C104.641 127.212 101.483 126.86 100.312 126.86C99.2017 126.86 96.5322 127.186 92.4632 127.834C92.4029 127.843 92.343 127.855 92.2837 127.869ZM100.312 121.85C101.811 121.85 105.079 122.215 110.301 122.95C111.343 123.097 112.337 123.48 113.209 124.07C114.08 124.66 114.805 125.441 115.328 126.354C115.852 127.267 116.159 128.288 116.228 129.338C116.296 130.388 116.124 131.44 115.724 132.413C114.9 134.416 113.548 136.158 111.812 137.453C110.076 138.749 108.022 139.549 105.867 139.769C102.892 140.072 101.096 140.22 100.312 140.22C99.4088 140.22 97.0699 140.018 93.0861 139.605C91.3609 139.426 89.7343 138.714 88.4321 137.568C87.13 136.422 86.217 134.9 85.8198 133.211L85.5418 132.028C85.3053 131.022 85.2788 129.979 85.4637 128.962C85.6487 127.946 86.0413 126.978 86.6169 126.121C87.1926 125.263 87.9389 124.533 88.8093 123.976C89.6797 123.42 90.6555 123.049 91.6758 122.886C96.0153 122.195 98.8418 121.85 100.312 121.85Z" fill="white"/>
<path d="M63.8556 70.9352L54.6195 65.8675C49.8783 63.2656 46.1508 58.6355 48.8663 53.8208C49.2646 53.1144 53.5724 47.7561 54.126 47.1616C58.2343 42.7561 63.3078 45.7521 67.6056 49.7601C68.0206 50.1468 68.4031 50.5676 68.7496 51.0177L74.2031 57.6101" fill="white"/>
<path d="M69.3108 47.9231C66.5861 45.3822 64.0602 43.6696 61.5151 42.9022C58.1074 41.8751 54.8826 42.6692 52.2915 45.4473C51.4716 46.3266 47.1479 51.7575 46.6819 52.5842C43.3912 58.4201 46.8114 64.4347 53.413 68.0569L62.6482 73.1246C62.9368 73.2867 63.2547 73.3899 63.5835 73.4283C63.9123 73.4668 64.2454 73.4397 64.5637 73.3486C64.8819 73.2575 65.1789 73.1043 65.4376 72.8978C65.6963 72.6912 65.9114 72.4354 66.0707 72.1452C66.2299 71.855 66.33 71.5361 66.3653 71.207C66.4005 70.8779 66.3702 70.545 66.276 70.2277C66.1819 69.9103 66.0257 69.6148 65.8167 69.3582C65.6076 69.1015 65.3498 68.8888 65.058 68.7325L55.8228 63.6648C51.3505 61.2107 49.4525 57.8715 51.0457 55.0449C51.1242 54.9055 52.1696 53.5428 53.3946 52.003C54.5561 50.5442 55.7477 49.0863 55.9547 48.8642C58.2569 46.3959 61.3172 47.3186 65.8939 51.5863C66.2087 51.8802 66.4993 52.1992 66.7623 52.5408L66.8166 52.6092L72.27 59.2016C72.4797 59.4552 72.7373 59.6649 73.0281 59.8189C73.3189 59.9728 73.6371 60.068 73.9647 60.099C74.2923 60.13 74.6227 60.0961 74.9372 59.9994C75.2517 59.9027 75.544 59.7449 75.7975 59.5352C76.0511 59.3255 76.2608 59.0679 76.4148 58.7771C76.5687 58.4864 76.6639 58.1681 76.6949 57.8406C76.7259 57.513 76.692 57.1825 76.5953 56.8681C76.4986 56.5536 76.3408 56.2612 76.1311 56.0077L70.7035 49.447C70.2808 48.9026 69.815 48.393 69.3108 47.9231Z" fill="white"/>
<path d="M65.8429 55.1685L66.9919 56.4887C67.6644 57.2609 68.0552 58.2383 68.1004 59.2613C68.1456 60.2843 67.8425 61.2923 67.2407 62.1208C66.6518 62.9317 65.7914 63.5042 64.816 63.7343C63.8406 63.9643 62.815 63.8365 61.9259 63.3742L60.2843 62.5216C59.6929 62.2144 59.1762 61.7809 58.7708 61.2519C58.3655 60.7229 58.0813 60.1113 57.9384 59.4603C57.7955 58.8094 57.7974 58.135 57.9439 57.4848C58.0904 56.8347 58.3779 56.2247 58.7862 55.6979L59.0468 55.3631C59.445 54.8493 59.9522 54.4301 60.5318 54.1356C61.1114 53.8412 61.749 53.6789 62.3989 53.6602C63.0487 53.6416 63.6946 53.7673 64.2901 54.028C64.8856 54.2888 65.4159 54.6783 65.8429 55.1685Z" fill="white"/>
<path d="M129.377 69.2652L138.613 64.1975C143.355 61.5964 146.15 57.1074 143.436 52.2927C143.036 51.5863 139.382 46.7174 138.636 46.0544C133.628 41.7699 129.925 44.0838 125.628 48.0918C125.212 48.4784 124.831 48.8993 124.483 49.3493L119.031 55.9417" fill="white"/>
<path d="M123.924 46.259C126.763 43.612 128.86 42.1582 131.239 41.5386C134.3 40.742 137.297 41.6079 140.269 44.1497C141.199 44.9747 145.023 49.999 145.622 51.0611C148.928 56.9246 146.138 62.9275 139.823 66.3928L130.587 71.4604C130.298 71.6249 129.98 71.7302 129.65 71.7703C129.32 71.8104 128.985 71.7845 128.666 71.694C128.346 71.6035 128.047 71.4503 127.787 71.2433C127.527 71.0363 127.311 70.7796 127.151 70.4883C126.991 70.1969 126.891 69.8766 126.856 69.5461C126.822 69.2156 126.853 68.8815 126.948 68.5632C127.044 68.2449 127.202 67.9488 127.413 67.6922C127.624 67.4355 127.884 67.2234 128.178 67.0683L137.413 62.0006C141.533 59.7402 142.993 56.5981 141.259 53.5219C141.147 53.324 140.177 51.9855 139.178 50.6728C138.112 49.2717 137.137 48.0676 136.978 47.9265C133.815 45.2219 131.827 45.7396 127.341 49.9222C127.026 50.2159 126.736 50.5351 126.473 50.8766L126.42 50.9442L120.966 57.5366C120.758 57.7945 120.501 58.0084 120.209 58.166C119.918 58.3237 119.598 58.4219 119.268 58.4551C118.938 58.4882 118.605 58.4556 118.288 58.3591C117.971 58.2626 117.676 58.1041 117.421 57.8929C117.165 57.6816 116.955 57.4218 116.8 57.1285C116.646 56.8351 116.552 56.5141 116.522 56.1839C116.493 55.8538 116.529 55.5212 116.63 55.2052C116.73 54.8893 116.892 54.5964 117.106 54.3435L122.533 47.7829C122.955 47.2386 123.42 46.7291 123.924 46.259Z" fill="white"/>
<path d="M127.592 53.4626L126.303 54.8738C125.617 55.6254 125.212 56.5907 125.155 57.6066C125.098 58.6225 125.394 59.6269 125.992 60.45C126.581 61.2607 127.442 61.8332 128.417 62.0632C129.392 62.2932 130.418 62.1655 131.307 61.7033L132.949 60.8508C133.549 60.5391 134.074 60.1018 134.49 59.5685C134.905 59.0353 135.201 58.4187 135.357 57.7608C135.512 57.1029 135.524 56.4192 135.392 55.7563C135.259 55.0934 134.985 54.4668 134.589 53.9194L134.542 53.8551C133.843 52.8908 132.791 52.2435 131.615 52.0554C130.439 51.8674 129.237 52.154 128.273 52.8522C128.025 53.0317 127.797 53.2363 127.592 53.4626Z" fill="white"/>
<path d="M103.716 90.8344C103.716 92.5733 104.058 94.2952 104.724 95.9018C105.389 97.5084 106.364 98.9682 107.594 100.198C108.823 101.427 110.283 102.403 111.889 103.068C113.496 103.734 115.218 104.076 116.956 104.076C118.695 104.076 120.417 103.734 122.024 103.068C123.63 102.403 125.09 101.427 126.319 100.198C127.549 98.9682 128.524 97.5084 129.189 95.9018C129.854 94.2952 130.197 92.5733 130.196 90.8344C130.197 89.0955 129.854 87.3737 129.189 85.7671C128.524 84.1605 127.549 82.7007 126.319 81.471C125.09 80.2413 123.63 79.2659 122.024 78.6004C120.417 77.9349 118.695 77.5924 116.956 77.5924C115.218 77.5924 113.496 77.9349 111.889 78.6004C110.283 79.2659 108.823 80.2413 107.594 81.471C106.364 82.7007 105.389 84.1605 104.724 85.7671C104.058 87.3737 103.716 89.0955 103.716 90.8344Z" fill="white"/>
<path d="M116.957 106.579C108.259 106.579 101.209 99.5302 101.209 90.8336C101.209 82.1386 108.259 75.0894 116.957 75.0894C125.652 75.0894 132.703 82.1386 132.703 90.8336C132.704 99.5302 125.652 106.579 116.957 106.579ZM116.957 101.568C122.887 101.568 127.693 96.7621 127.693 90.8336C127.694 84.9058 122.887 80.0995 116.957 80.0995C111.026 80.0995 106.219 84.9058 106.219 90.8336C106.219 96.763 111.026 101.568 116.957 101.568Z" fill="white"/>
<path d="M108.532 95.0336C109.1 95.691 109.854 96.159 110.696 96.375C111.537 96.591 112.424 96.5446 113.238 96.242C114.052 95.9394 114.754 95.395 115.249 94.682C115.745 93.969 116.011 93.1214 116.011 92.253C116.023 91.124 115.585 90.0367 114.795 89.2302C114.005 88.4238 112.927 87.9642 111.798 87.9527C110.669 87.9412 109.581 88.3786 108.775 89.1688C107.969 89.959 107.509 91.0372 107.497 92.1662L110.654 92.6246L108.532 95.0336Z" fill="white"/>
<path d="M67.8119 90.5889C67.8119 94.4782 69.3569 98.2081 72.107 100.958C74.8571 103.708 78.5871 105.253 82.4764 105.253C86.3656 105.253 90.0956 103.708 92.8457 100.958C95.5958 98.2081 97.1408 94.4782 97.1408 90.5889C97.1408 86.6997 95.5958 82.9697 92.8457 80.2196C90.0956 77.4694 86.3656 75.9244 82.4764 75.9244C78.5871 75.9244 74.8571 77.4694 72.107 80.2196C69.3569 82.9697 67.8119 86.6997 67.8119 90.5889Z" fill="white"/>
<path d="M82.4763 107.759C72.9923 107.759 65.3035 100.071 65.3035 90.5889C65.3035 81.1065 72.9923 73.4193 82.4763 73.4193C91.9604 73.4193 99.6483 81.1065 99.6483 90.5889C99.6483 100.071 91.9604 107.759 82.4763 107.759ZM82.4763 102.749C89.1931 102.749 94.6383 97.3048 94.6383 90.5897C94.6383 83.8737 89.1931 78.4294 82.4763 78.4294C75.7586 78.4294 70.3135 83.8737 70.3135 90.5889C70.3135 97.304 75.7586 102.749 82.4763 102.749Z" fill="white"/>
<path d="M83.6011 95.9312C84.3082 96.7504 85.2798 97.2961 86.3473 97.4736C87.4148 97.6511 88.5107 97.4493 89.4449 96.9031C90.3791 96.357 91.0926 95.5009 91.4615 94.4836C91.8304 93.4663 91.8315 92.352 91.4646 91.3339C91.0976 90.3159 90.3858 89.4585 89.4527 88.9105C88.5195 88.3625 87.424 88.1586 86.3562 88.334C85.2884 88.5095 84.3157 89.0533 83.607 89.871C82.8982 90.6888 82.4982 91.7289 82.4763 92.8108L85.9099 93.3101L83.6011 95.9312Z" fill="white"/>
<path d="M68.5918 109.45C49.2338 103.082 37.4935 99.7289 32.9661 99.3155C32.6351 99.2789 32.3001 99.3086 31.9808 99.4029C31.6614 99.4972 31.3641 99.6543 31.1061 99.8649C30.8481 100.075 30.6348 100.335 30.4785 100.629C30.3221 100.923 30.226 101.246 30.1957 101.577C30.1654 101.909 30.2015 102.243 30.3019 102.561C30.4024 102.878 30.5651 103.173 30.7806 103.426C30.9961 103.68 31.26 103.889 31.557 104.039C31.854 104.19 32.178 104.28 32.5102 104.304C36.4882 104.668 48.1291 107.993 67.0254 114.209C67.3378 114.312 67.6675 114.352 67.9955 114.327C68.3236 114.303 68.6436 114.214 68.9372 114.066C69.2309 113.918 69.4925 113.713 69.7071 113.464C69.9217 113.214 70.0851 112.925 70.188 112.613C70.2908 112.3 70.3311 111.971 70.3066 111.643C70.282 111.314 70.1931 110.994 70.0449 110.701C69.8967 110.407 69.6921 110.146 69.4428 109.931C69.1935 109.716 68.9043 109.553 68.5918 109.45ZM129.651 109.45C149.01 103.082 160.749 99.728 165.277 99.3147C165.931 99.2675 166.578 99.4789 167.078 99.9035C167.578 100.328 167.892 100.932 167.952 101.585C168.012 102.239 167.813 102.889 167.398 103.397C166.983 103.906 166.385 104.231 165.733 104.303C161.755 104.667 150.114 107.992 131.217 114.208C130.904 114.311 130.575 114.351 130.247 114.326C129.919 114.302 129.599 114.213 129.305 114.065C128.712 113.765 128.263 113.243 128.055 112.612C127.848 111.981 127.899 111.293 128.198 110.7C128.498 110.107 129.02 109.658 129.651 109.45ZM166.175 120.224C166.386 120.203 166.535 120.187 166.643 120.172C166.702 120.163 166.702 120.163 166.793 120.147C166.895 120.136 166.895 120.136 167.402 119.955C167.668 119.838 167.668 119.838 168.234 119.338C168.602 118.877 168.602 118.877 168.845 117.97C168.804 116.909 168.804 116.909 168.357 116.171C167.545 115.424 167.545 115.424 167.172 115.309C166.914 115.233 166.914 115.233 166.776 115.207C166.465 115.17 166.465 115.17 166.373 115.17C166.184 115.167 165.87 115.182 165.229 115.222C164.136 115.288 162.146 115.424 159.251 115.628C153.474 116.037 144.092 116.721 131.102 117.682C130.774 117.706 130.453 117.795 130.16 117.943C129.866 118.091 129.604 118.295 129.389 118.544C129.174 118.793 129.011 119.082 128.908 119.395C128.805 119.707 128.764 120.037 128.788 120.365C128.813 120.693 128.901 121.013 129.049 121.307C129.197 121.601 129.402 121.863 129.651 122.077C129.9 122.292 130.189 122.456 130.501 122.559C130.814 122.662 131.143 122.703 131.472 122.678C140.848 121.981 150.226 121.297 159.604 120.626C162.482 120.422 164.46 120.288 165.534 120.223C165.797 120.24 165.984 120.243 166.175 120.224ZM166.287 120.18C166.225 120.181 166.225 120.181 165.931 120.146C165.796 120.122 165.796 120.122 165.539 120.046C165.169 119.931 165.169 119.931 164.356 119.185C163.91 118.447 163.91 118.447 163.869 117.388C164.112 116.481 164.112 116.481 164.48 116.02C165.045 115.521 165.045 115.521 165.309 115.405C165.804 115.228 165.804 115.228 165.882 115.222L165.95 115.21C165.925 115.214 165.825 115.225 165.676 115.24C165.015 115.306 164.407 115.632 163.986 116.147C163.565 116.661 163.366 117.321 163.432 117.982C163.488 118.547 163.735 119.076 164.132 119.482C164.528 119.888 165.05 120.148 165.614 120.218C166.013 120.194 166.294 120.18 166.287 120.18ZM97.869 138.55V152.745C97.869 153.41 98.133 154.047 98.6027 154.517C99.0725 154.987 99.7097 155.25 100.374 155.25C101.038 155.25 101.676 154.987 102.145 154.517C102.615 154.047 102.879 153.41 102.879 152.745V138.55C102.879 137.886 102.615 137.249 102.145 136.779C101.676 136.309 101.038 136.045 100.374 136.045C99.7097 136.045 99.0725 136.309 98.6027 136.779C98.133 137.249 97.869 137.886 97.869 138.55ZM36.914 121.923C55.1724 121.913 66.3081 121.889 70.3379 121.85C71.0022 121.843 71.6368 121.573 72.1019 121.099C72.5669 120.624 72.8245 119.984 72.8178 119.32C72.8112 118.656 72.5409 118.021 72.0664 117.556C71.5919 117.091 70.9521 116.833 70.2878 116.84C66.2805 116.88 55.1498 116.904 36.9107 116.913C36.5817 116.913 36.256 116.978 35.9522 117.104C35.6483 117.23 35.3723 117.415 35.1398 117.647C34.9074 117.88 34.723 118.157 34.5974 118.461C34.4717 118.765 34.4071 119.09 34.4073 119.419C34.4075 119.748 34.4725 120.074 34.5986 120.378C34.7247 120.682 34.9094 120.958 35.1422 121.19C35.375 121.423 35.6512 121.607 35.9553 121.733C36.2593 121.858 36.5851 121.923 36.914 121.923Z" fill="white"/>
<path d="M124.297 178.309C146.716 177.072 163.282 176.06 173.995 175.274C190.063 174.095 194.412 180.812 194.629 186.34C194.846 191.87 183.113 200.085 180.689 201.044C178.265 202.003 171.409 199.578 175.87 195.81C180.332 192.041 191.464 183.061 175.87 183.061C165.474 183.061 148.284 187.868 124.297 197.48V178.309Z" fill="#F6BD4E"/>
<path d="M126.665 193.992C149.229 185.132 165.574 180.692 175.87 180.692C181.339 180.692 184.618 181.715 185.843 184.291C186.968 186.661 185.944 189.084 183.63 191.79C182.813 192.747 181.833 193.732 180.671 194.791C180.094 195.317 179.507 195.833 178.912 196.339C178.666 196.55 178.417 196.76 178.11 197.018L177.398 197.618C177.208 197.773 177.034 197.947 176.88 198.138C176.914 198.164 176.953 198.191 176.996 198.22C177.833 198.769 179.362 199.023 179.816 198.843C180.975 198.385 184.415 196.011 187.071 193.64C190.378 190.688 192.321 187.945 192.261 186.434C192.164 183.96 191.088 181.791 188.882 180.221C185.935 178.123 181.101 177.127 174.167 177.636C163.798 178.397 147.966 179.368 126.665 180.55V193.992ZM124.167 175.944C146.572 174.707 163.126 173.698 173.821 172.912C188.817 171.811 196.648 177.386 196.995 186.248C197.129 189.671 194.546 193.317 190.226 197.173C187.19 199.884 183.328 202.548 181.559 203.247C179.558 204.038 176.444 203.522 174.398 202.179C171.37 200.193 171.122 196.721 174.343 194L175.058 193.397C175.357 193.146 175.598 192.941 175.835 192.738C176.391 192.265 176.939 191.782 177.48 191.291C178.508 190.354 179.358 189.5 180.03 188.713C181.219 187.322 181.604 186.41 181.563 186.325C181.551 186.299 181.33 186.139 180.691 185.94C179.646 185.614 178.041 185.43 175.87 185.43C165.863 185.43 148.9 190.172 125.177 199.679L121.929 200.979V176.067L124.167 175.944Z" fill="#524F75"/>
<path d="M179.421 198.075C180.428 199.273 180.958 200.801 180.909 202.365C180.859 203.93 180.234 205.421 179.153 206.553L169.917 216.219L170.48 207.67L159.748 212.054L166.047 203.78L159.754 200.811L170.547 196.025C172.048 195.36 173.726 195.2 175.326 195.569C176.926 195.939 178.364 196.819 179.421 198.075Z" fill="#B57D47"/>
<path d="M177.429 205.201C178.132 204.516 178.557 203.595 178.622 202.615C178.687 201.635 178.389 200.666 177.783 199.893C177.087 199.004 176.12 198.365 175.029 198.073C173.938 197.78 172.782 197.85 171.734 198.271L165.584 200.745L167.167 201.561C167.481 201.722 167.754 201.952 167.968 202.233C168.181 202.514 168.329 202.839 168.4 203.184C168.472 203.529 168.466 203.886 168.382 204.229C168.298 204.572 168.138 204.891 167.915 205.164L166.83 206.492L169.558 205.487C171.201 204.882 172.909 206.206 172.733 207.947L172.528 209.986L177.429 205.201ZM158.813 202.586C157.011 201.656 157.134 199.04 159.015 198.283L169.966 193.878C171.966 193.074 174.173 192.94 176.256 193.499C178.338 194.057 180.183 195.276 181.512 196.974C182.837 198.665 183.491 200.786 183.348 202.931C183.206 205.075 182.276 207.091 180.738 208.592L171.17 217.928C169.586 219.473 166.938 218.197 167.16 215.995L167.64 211.242L160.317 213.939C158.054 214.773 156.139 212.084 157.666 210.217L162.397 204.432L158.813 202.586Z" fill="#524F75"/>
<path d="M51.9839 163.271L70.7831 169.345L76.0032 184.595C78.553 192.044 74.5824 200.148 67.1337 202.699C65.6477 203.208 64.0876 203.468 62.5166 203.468H55.2685C51.6693 203.468 48.1781 202.238 45.3736 199.982C42.569 197.726 40.6194 194.58 39.848 191.064L36.778 177.076C35.3761 170.689 39.4177 164.374 45.8046 162.973C47.8543 162.523 49.987 162.625 51.9839 163.271Z" fill="#F6BD4E"/>
<path d="M68.9272 171.234L51.2561 165.524C49.6587 165.008 47.9527 164.925 46.313 165.285C41.2025 166.408 37.97 171.459 39.0917 176.569L42.1616 190.557C42.8175 193.545 44.4748 196.219 46.8587 198.136C49.2426 200.054 52.21 201.099 55.2693 201.099H62.5174C63.8278 201.099 65.1279 200.882 66.3672 200.458C72.5781 198.332 75.8895 191.573 73.7637 185.362L68.9272 171.234ZM52.7117 161.017L72.6397 167.456L78.2443 183.829C81.2179 192.515 76.5866 201.966 67.901 204.939C66.1682 205.533 64.3491 205.836 62.5174 205.836H55.2693C51.1303 205.836 47.1156 204.422 43.8904 201.827C40.6652 199.233 38.4232 195.615 37.5358 191.572L34.4651 177.585C32.7829 169.92 37.6321 162.342 45.297 160.66C47.7565 160.12 50.3155 160.243 52.7117 161.017Z" fill="#524F75"/>
<path d="M50.7296 190.366H66.0073C70.7333 190.366 74.5642 194.197 74.5642 198.922C74.5642 203.648 70.7325 207.479 66.0073 207.479H50.7296C46.0035 207.479 42.1727 203.648 42.1727 198.922C42.1727 194.196 46.0035 190.366 50.7296 190.366Z" fill="#F6BD4E"/>
<path d="M44.5408 198.922C44.5408 200.564 45.1928 202.138 46.3535 203.299C47.5141 204.459 49.0882 205.111 50.7296 205.111H66.0073C67.6486 205.111 69.2228 204.459 70.3834 203.299C71.544 202.138 72.196 200.564 72.196 198.922C72.196 197.281 71.544 195.707 70.3834 194.546C69.2228 193.386 67.6486 192.734 66.0073 192.734H50.7296C49.0882 192.734 47.5141 193.386 46.3535 194.546C45.1928 195.707 44.5408 197.281 44.5408 198.922ZM50.7296 187.997H66.0073C72.0413 187.997 76.9323 192.888 76.9323 198.922C76.9323 204.957 72.0405 209.848 66.0073 209.848H50.7296C44.6955 209.848 39.8045 204.956 39.8045 198.922C39.8045 192.889 44.6955 187.997 50.7296 187.997Z" fill="#524F75"/>
<path d="M50.1107 199.739V206.048C50.1107 206.676 50.3602 207.279 50.8043 207.723C51.2485 208.167 51.8508 208.416 52.4789 208.416C53.1069 208.416 53.7093 208.167 54.1534 207.723C54.5975 207.279 54.847 206.676 54.847 206.048V199.739C54.847 199.111 54.5975 198.509 54.1534 198.065C53.7093 197.621 53.1069 197.371 52.4789 197.371C51.8508 197.371 51.2485 197.621 50.8043 198.065C50.3602 198.509 50.1107 199.111 50.1107 199.739Z" fill="#524F75"/>
<path d="M142.142 163.271L123.343 169.345L118.122 184.595C115.573 192.044 119.544 200.148 126.992 202.699C128.478 203.208 130.039 203.468 131.61 203.468H138.858C142.457 203.468 145.948 202.238 148.753 199.982C151.557 197.726 153.507 194.58 154.278 191.064L157.348 177.076C158.75 170.689 154.708 164.374 148.322 162.973C146.272 162.523 144.139 162.625 142.142 163.271Z" fill="#F6BD4E"/>
<path d="M142.87 165.524C144.468 165.008 146.174 164.925 147.813 165.285C152.924 166.408 156.156 171.459 155.035 176.569L151.965 190.557C151.309 193.545 149.651 196.22 147.268 198.137C144.884 200.054 141.916 201.099 138.857 201.1H131.609C130.299 201.1 128.998 200.882 127.759 200.459C121.547 198.333 118.236 191.574 120.362 185.363L125.199 171.234L142.87 165.524ZM141.415 161.017L121.487 167.455L115.882 183.828C112.908 192.514 117.54 201.966 126.226 204.938C127.959 205.532 129.778 205.835 131.61 205.835H138.858C142.997 205.835 147.012 204.421 150.237 201.827C153.462 199.233 155.704 195.614 156.591 191.572L159.661 177.585C161.344 169.92 156.493 162.342 148.829 160.66C146.37 160.12 143.811 160.243 141.415 161.017Z" fill="#524F75"/>
<path d="M143.397 190.366H128.119C123.393 190.366 119.561 194.197 119.561 198.922C119.561 203.648 123.393 207.479 128.118 207.479H143.397C148.123 207.479 151.954 203.648 151.954 198.922C151.954 194.196 148.123 190.366 143.397 190.366Z" fill="#F6BD4E"/>
<path d="M143.397 192.734C145.038 192.734 146.612 193.386 147.773 194.546C148.934 195.707 149.586 197.281 149.586 198.922C149.586 200.564 148.934 202.138 147.773 203.299C146.612 204.459 145.038 205.111 143.397 205.111H128.119C126.478 205.111 124.904 204.459 123.743 203.299C122.582 202.138 121.93 200.564 121.93 198.922C121.93 197.281 122.582 195.707 123.743 194.546C124.904 193.386 126.478 192.734 128.119 192.734H143.397ZM143.397 187.997H128.119C122.085 187.997 117.193 192.888 117.193 198.922C117.193 204.957 122.085 209.848 128.118 209.848H143.397C149.431 209.848 154.322 204.956 154.322 198.922C154.322 192.889 149.431 187.997 143.397 187.997Z" fill="#524F75"/>
<path d="M144.016 199.739V206.048C144 206.666 143.743 207.253 143.301 207.684C142.858 208.115 142.265 208.356 141.648 208.356C141.03 208.356 140.437 208.115 139.994 207.684C139.552 207.253 139.295 206.666 139.279 206.048V199.739C139.279 199.111 139.529 198.509 139.973 198.065C140.417 197.621 141.019 197.371 141.648 197.371C142.276 197.371 142.878 197.621 143.322 198.065C143.766 198.509 144.016 199.111 144.016 199.739Z" fill="#524F75"/>
<path d="M57.1994 138.072H136.138V187.014C136.138 195.733 129.07 202.801 120.35 202.801H72.9871C64.2675 202.801 57.1994 195.733 57.1994 187.014V138.072Z" fill="#F6BD4E"/>
<path d="M59.5675 187.014C59.5675 194.425 65.5755 200.433 72.987 200.433H120.35C127.761 200.433 133.769 194.425 133.769 187.014V140.44H59.5675V187.014ZM138.506 135.704V187.014C138.506 197.041 130.377 205.17 120.35 205.17H72.987C62.9594 205.17 54.8312 197.041 54.8312 187.014V135.704H138.506Z" fill="#524F75"/>
<path d="M89.5569 167.279H102.994C110.399 167.279 116.403 173.283 116.403 180.688C116.403 181.756 116.275 182.819 116.024 183.856L115.707 185.16C114.648 189.515 112.157 193.389 108.633 196.158C105.109 198.928 100.757 200.433 96.2753 200.433C91.7934 200.433 87.4414 198.928 83.9177 196.158C80.3939 193.389 77.9028 189.515 76.8439 185.16L76.5274 183.856C74.7781 176.66 79.1931 169.408 86.3891 167.658C87.4262 167.406 88.4897 167.279 89.5569 167.279Z" fill="#FFE281"/>
<path d="M82.0649 211.073C74.9123 211.073 69.1822 205.494 67.0927 197.07L65.9441 180.79C65.9 180.163 65.6087 179.58 65.1344 179.168C64.66 178.756 64.0415 178.549 63.4149 178.593C62.7883 178.638 62.2049 178.929 61.7931 179.403C61.3813 179.878 61.1747 180.496 61.2189 181.123L62.3959 197.799L62.4416 197.989C64.9621 208.473 72.4281 215.81 82.0649 215.81C91.5383 215.81 96.3638 209.664 98.679 197.894L98.6996 197.773L99.2869 193.679C99.376 193.058 99.2146 192.426 98.838 191.923C98.4613 191.42 97.9005 191.088 97.2787 190.999C96.6569 190.909 96.0251 191.071 95.5224 191.448C95.0196 191.824 94.6871 192.385 94.5979 193.007L94.0201 197.039C92.0877 206.813 88.7289 211.073 82.0649 211.073Z" fill="#524F75"/>
<path d="M74.4513 203.754H89.6777C94.4108 203.754 98.2472 207.591 98.2472 212.323C98.2472 217.055 94.4108 220.892 89.6784 220.892H74.4513C69.7189 220.893 65.8825 217.055 65.8825 212.323C65.8825 207.591 69.7189 203.754 74.4513 203.754Z" fill="#F6BD4E"/>
<path d="M74.4513 206.122C71.027 206.122 68.2507 208.898 68.2507 212.323C68.2507 215.748 71.027 218.524 74.4513 218.524H89.6777C91.3222 218.524 92.8993 217.87 94.0622 216.708C95.225 215.545 95.8783 213.968 95.8783 212.323C95.8783 210.679 95.225 209.101 94.0622 207.939C92.8993 206.776 91.3222 206.122 89.6777 206.122H74.4513ZM74.4513 201.386H89.6777C95.7181 201.386 100.615 206.283 100.615 212.323C100.615 218.363 95.718 223.26 89.6785 223.26H74.4513C68.4117 223.261 63.5144 218.364 63.5144 212.323C63.5144 206.282 68.4117 201.386 74.4513 201.386Z" fill="#524F75"/>
<path d="M73.8119 213.142V219.459C73.8119 220.087 74.0614 220.689 74.5055 221.134C74.9496 221.578 75.552 221.827 76.18 221.827C76.8081 221.827 77.4105 221.578 77.8546 221.134C78.2987 220.689 78.5482 220.087 78.5482 219.459V213.142C78.5482 212.514 78.2987 211.912 77.8546 211.468C77.4105 211.024 76.8081 210.774 76.18 210.774C75.552 210.774 74.9496 211.024 74.5055 211.468C74.0614 211.912 73.8119 212.514 73.8119 213.142ZM85.5816 213.142V219.459C85.5816 220.087 85.8311 220.689 86.2752 221.134C86.7193 221.578 87.3217 221.827 87.9497 221.827C88.5778 221.827 89.1802 221.578 89.6243 221.134C90.0684 220.689 90.3179 220.087 90.3179 219.459V213.142C90.3179 212.514 90.0684 211.912 89.6243 211.468C89.1802 211.024 88.5778 210.774 87.9497 210.774C87.3217 210.774 86.7193 211.024 86.2752 211.468C85.8311 211.912 85.5816 212.514 85.5816 213.142Z" fill="#524F75"/>
<path d="M128.023 179.677C128.054 179.367 128.146 179.067 128.293 178.793C128.441 178.519 128.641 178.277 128.882 178.08C129.123 177.884 129.4 177.736 129.698 177.647C129.996 177.558 130.308 177.528 130.618 177.559C130.927 177.59 131.227 177.682 131.501 177.83C131.775 177.977 132.017 178.177 132.214 178.418C132.411 178.659 132.558 178.936 132.647 179.234C132.737 179.532 132.767 179.845 132.735 180.154L130.906 198.227L130.865 198.387C128.271 208.991 122.308 215.216 112.805 215.216C107.802 215.216 104.006 213.297 101.323 209.63C99.1692 206.687 97.7925 202.792 96.6858 197.291L94.9887 191.1C94.9064 190.801 94.8841 190.487 94.923 190.179C94.9618 189.87 95.061 189.572 95.215 189.302C95.526 188.756 96.041 188.356 96.6467 188.19C97.2525 188.024 97.8994 188.106 98.4452 188.417C98.9909 188.728 99.3908 189.243 99.5568 189.849L101.276 196.117L101.315 196.279C103.337 206.383 106.334 210.479 112.807 210.479C119.763 210.479 124.086 206.007 126.228 197.418L128.023 179.677Z" fill="#524F75"/>
<path d="M106.665 204.912H122.194C126.843 204.912 130.612 208.68 130.612 213.329C130.612 217.978 126.843 221.747 122.194 221.747H106.665C102.016 221.747 98.2473 217.978 98.2473 213.329C98.2473 208.68 102.016 204.912 106.665 204.912Z" fill="#F6BD4E"/>
<path d="M106.665 207.28C105.061 207.28 103.522 207.917 102.388 209.051C101.253 210.186 100.616 211.725 100.616 213.329C100.616 214.933 101.253 216.472 102.388 217.607C103.522 218.741 105.061 219.378 106.665 219.378H122.194C123.786 219.36 125.307 218.715 126.427 217.582C127.547 216.45 128.175 214.922 128.175 213.329C128.175 211.737 127.547 210.208 126.427 209.076C125.307 207.943 123.786 207.298 122.194 207.28H106.665ZM106.665 202.543H122.194C128.151 202.543 132.98 207.372 132.98 213.329C132.98 219.286 128.151 224.115 122.194 224.115H106.665C100.708 224.115 95.8792 219.286 95.8792 213.329C95.8792 207.372 100.708 202.543 106.665 202.543Z" fill="#524F75"/>
<path d="M106.177 212.554V218.76C106.193 219.377 106.449 219.964 106.891 220.395C107.334 220.826 107.927 221.067 108.545 221.067C109.162 221.067 109.756 220.826 110.198 220.395C110.64 219.964 110.897 219.377 110.913 218.76V212.554C110.913 211.926 110.663 211.324 110.219 210.88C109.775 210.436 109.173 210.186 108.545 210.186C107.917 210.186 107.314 210.436 106.87 210.88C106.426 211.324 106.177 211.926 106.177 212.554ZM117.946 212.554V218.76C117.946 219.388 118.196 219.99 118.64 220.434C119.084 220.878 119.686 221.128 120.314 221.128C120.943 221.128 121.545 220.878 121.989 220.434C122.433 219.99 122.683 219.388 122.683 218.76V212.554C122.683 211.926 122.433 211.324 121.989 210.88C121.545 210.436 120.943 210.186 120.314 210.186C119.686 210.186 119.084 210.436 118.64 210.88C118.196 211.324 117.946 211.926 117.946 212.554Z" fill="#524F75"/>
<path d="M94.3003 183.856C94.3003 184.694 94.633 185.497 95.2251 186.089C95.8173 186.681 96.6204 187.014 97.4578 187.014C98.2952 187.014 99.0984 186.681 99.6905 186.089C100.283 185.497 100.615 184.694 100.615 183.856C100.615 183.019 100.283 182.216 99.6905 181.624C99.0984 181.031 98.2952 180.699 97.4578 180.699C96.6204 180.699 95.8173 181.031 95.2251 181.624C94.633 182.216 94.3003 183.019 94.3003 183.856Z" fill="#524F75"/>
<path d="M69.153 34.8785C80.468 31.7841 90.7379 30.4232 99.9626 30.7966C106.863 31.0761 113.998 31.8702 121.364 33.1774C142.061 36.8512 158.213 53.1409 161.71 73.8677L166.832 104.212C171.397 131.265 153.192 156.904 126.146 161.513C116.993 163.073 109.078 163.934 102.403 164.097C94.0477 164.302 83.1558 163.204 69.7277 160.806C43.5746 156.135 25.7117 131.732 29.1629 105.39L32.9622 76.3874C35.5656 56.525 49.8305 40.1634 69.153 34.8785Z" fill="#FFE281"/>
<path d="M69.153 34.8785C49.8305 40.1634 35.5655 56.525 32.9629 76.3874L29.1636 105.39C25.7125 131.732 43.5754 156.135 69.7284 160.806C83.1558 163.204 94.0477 164.302 102.404 164.097C109.078 163.934 116.994 163.072 126.147 161.513C153.193 156.904 171.398 131.265 166.833 104.212L161.711 73.8677C158.213 53.1409 142.061 36.8512 121.365 33.1774C113.999 31.8702 106.864 31.0761 99.9634 30.7966C90.7378 30.4232 80.4688 31.7841 69.153 34.8785ZM67.9042 30.3096C79.6636 27.0936 90.4118 25.6696 100.154 26.0643C107.273 26.3524 114.62 27.1694 122.192 28.5137C144.86 32.5372 162.55 50.378 166.381 73.0791L171.502 103.424C176.502 133.053 156.564 161.135 126.942 166.18C117.578 167.776 109.443 168.662 102.519 168.831C93.7999 169.045 82.6104 167.918 68.8956 165.468C40.2513 160.352 20.6873 133.624 24.4668 104.774L28.2661 75.7709C31.1166 54.0187 46.7408 36.0981 67.9042 30.3096Z" fill="#524F75"/>
<path d="M95.5175 55.187H105.907C125.028 55.187 141.271 69.2001 144.104 88.1413L146.418 103.621C153.236 139.496 137.127 150.39 109.444 153.704C107.902 153.888 106.362 154.083 104.811 154.149L94.5679 154.589C71.0182 155.598 50.3506 144.044 50.102 113.708C50.083 111.441 50.0886 109.174 50.3506 106.921L52.362 89.6648C54.5517 70.8799 69.9818 56.4342 88.8425 55.513L95.5175 55.187Z" fill="#F3B438"/>
<path d="M88.9578 57.8787C71.2543 58.7439 56.7699 72.3039 54.7144 89.9395L52.7022 107.196C52.4931 108.994 52.4449 110.707 52.4694 113.689C52.6849 140.03 69.1775 153.307 94.4661 152.223L104.709 151.784C105.827 151.735 106.741 151.643 108.825 151.393L109.163 151.353C123.753 149.606 133.361 145.89 139.083 139.318C145.443 132.014 147.258 120.722 144.092 104.063L141.762 88.491C139.103 70.7102 123.854 57.5551 105.907 57.5551H95.576L88.9578 57.8787ZM142.655 142.428C136 150.073 125.37 154.183 109.725 156.056L109.39 156.096C107.186 156.361 106.191 156.462 104.911 156.516L94.6682 156.956C66.8622 158.148 47.9723 142.94 47.7331 113.728C47.707 110.561 47.7599 108.694 47.9975 106.648L50.0097 89.3917C52.3336 69.4566 68.7086 54.1268 88.7265 53.1488L95.4023 52.822L105.907 52.8188C126.201 52.8188 143.439 67.6916 146.445 87.7908L148.754 103.226C152.153 121.156 150.103 133.873 142.655 142.428Z" fill="#524F75"/>
<path d="M92.5361 107.951C94.0785 105.951 95.9186 104.94 98.0562 104.918C100.194 104.896 102.035 105.907 103.579 107.951C105.295 112.438 106.334 115.547 106.694 117.278C107.055 119.011 107.398 122.521 107.72 127.81H89.0857C88.6712 123.933 88.6712 120.804 89.0857 118.42C89.5001 116.036 90.6494 112.546 92.5361 107.951Z" fill="#FFD074"/>
<path d="M91.1847 125.602C95.16 124.969 97.7579 124.653 98.9782 124.653C100.24 124.653 103.278 124.991 108.091 125.669C108.719 125.758 109.318 125.989 109.843 126.344C110.367 126.7 110.804 127.17 111.119 127.72C111.434 128.271 111.619 128.885 111.661 129.518C111.702 130.15 111.598 130.784 111.357 131.37C110.741 132.868 109.731 134.17 108.433 135.138C107.136 136.107 105.6 136.704 103.989 136.868C101.275 137.145 99.6042 137.283 98.9782 137.283C98.2441 137.283 96.0488 137.093 92.3916 136.714C91.2499 136.595 90.1734 136.124 89.3116 135.365C88.4499 134.607 87.8456 133.599 87.5827 132.482L87.3198 131.364C87.1707 130.73 87.1538 130.072 87.2702 129.432C87.3867 128.791 87.634 128.182 87.9966 127.641C88.3593 127.1 88.8297 126.64 89.3782 126.289C89.9267 125.939 90.5417 125.705 91.1847 125.602Z" fill="#9B764F"/>
<path d="M91.3883 127.974C90.777 128.118 90.2479 128.499 89.9173 129.033C89.5868 129.567 89.4818 130.21 89.6256 130.822L89.8885 131.94C90.0388 132.579 90.3841 133.154 90.8765 133.587C91.3689 134.021 91.984 134.29 92.6363 134.357C96.1854 134.726 98.3649 134.914 98.979 134.914C99.4905 134.914 101.132 134.778 103.75 134.511C104.935 134.391 106.064 133.951 107.018 133.239C107.973 132.527 108.716 131.569 109.168 130.468C109.272 130.215 109.316 129.943 109.298 129.67C109.28 129.398 109.2 129.133 109.065 128.896C108.929 128.66 108.741 128.457 108.515 128.304C108.288 128.151 108.03 128.052 107.76 128.014C103.07 127.354 100.085 127.021 98.9782 127.021C97.9283 127.021 95.4047 127.329 91.558 127.941C91.501 127.95 91.4444 127.961 91.3883 127.974ZM98.9782 122.284C100.395 122.284 103.485 122.629 108.421 123.324C109.406 123.463 110.346 123.825 111.17 124.383C111.994 124.941 112.679 125.679 113.174 126.542C113.668 127.405 113.959 128.37 114.024 129.363C114.089 130.356 113.926 131.35 113.548 132.27C112.769 134.164 111.491 135.811 109.85 137.035C108.209 138.26 106.266 139.016 104.229 139.224C101.417 139.51 99.7194 139.651 98.9782 139.651C98.1241 139.651 95.913 139.46 92.1469 139.069C90.516 138.9 88.9782 138.227 87.7472 137.144C86.5162 136.061 85.6531 134.621 85.2777 133.025L85.0148 131.906C84.7913 130.955 84.7662 129.969 84.9411 129.008C85.1159 128.047 85.487 127.133 86.0312 126.322C86.5754 125.511 87.2809 124.821 88.1038 124.294C88.9266 123.768 89.8491 123.418 90.8136 123.264C94.916 122.61 97.5881 122.284 98.9782 122.284Z" fill="#524F75"/>
<path d="M64.5138 74.1519L55.7824 69.3611C51.3003 66.9014 47.7765 62.5243 50.3436 57.9727C50.7201 57.3049 54.7925 52.2394 55.3159 51.6774C59.1997 47.5126 63.9959 50.3449 68.0589 54.1339C68.4512 54.4994 68.8128 54.8972 69.1403 55.3227L74.2958 61.5549" fill="#F3B438"/>
<path d="M69.6709 52.3973C67.0951 49.9952 64.7072 48.3762 62.3012 47.6507C59.0797 46.6798 56.0311 47.4305 53.5817 50.0568C52.8065 50.888 48.7191 56.0221 48.2786 56.8036C45.1676 62.3206 48.401 68.0065 54.6418 71.4309L63.3724 76.2216C63.6453 76.3748 63.9458 76.4724 64.2566 76.5088C64.5674 76.5451 64.8823 76.5195 65.1832 76.4334C65.484 76.3473 65.7648 76.2024 66.0094 76.0072C66.2539 75.8119 66.4573 75.5701 66.6078 75.2958C66.7584 75.0214 66.853 74.72 66.8863 74.4088C66.9197 74.0977 66.891 73.783 66.802 73.483C66.713 73.183 66.5654 72.9036 66.3677 72.661C66.1701 72.4184 65.9263 72.2173 65.6505 72.0695L56.92 67.2787C52.692 64.9587 50.8978 61.802 52.4039 59.1299C52.4781 58.9981 53.4664 57.7098 54.6244 56.2542C55.7225 54.8752 56.8489 53.4969 57.0447 53.2869C59.221 50.9535 62.1141 51.8258 66.4407 55.8603C66.7383 56.1382 67.013 56.4397 67.2617 56.7626L67.313 56.8273L72.4684 63.0595C72.6667 63.2991 72.9102 63.4974 73.1851 63.643C73.46 63.7885 73.7608 63.8785 74.0705 63.9078C74.3802 63.9371 74.6926 63.9051 74.9898 63.8136C75.2871 63.7222 75.5635 63.5731 75.8032 63.3748C76.0428 63.1766 76.2411 62.9331 76.3867 62.6582C76.5322 62.3833 76.6222 62.0824 76.6515 61.7728C76.6808 61.4631 76.6488 61.1507 76.5574 60.8534C76.4659 60.5561 76.3168 60.2798 76.1185 60.0401L70.9876 53.8379C70.5879 53.3232 70.1476 52.8415 69.6709 52.3973Z" fill="#524F75"/>
<path d="M66.3925 59.2467L67.4787 60.4948C68.1145 61.2247 68.4839 62.1488 68.5266 63.1158C68.5693 64.0829 68.2828 65.0359 67.7139 65.8191C67.1572 66.5857 66.3438 67.127 65.4217 67.3444C64.4996 67.5619 63.5301 67.4411 62.6895 67.004L61.1376 66.198C60.5785 65.9076 60.0901 65.4978 59.7069 64.9977C59.3237 64.4976 59.055 63.9194 58.9199 63.304C58.7848 62.6887 58.7866 62.0511 58.9251 61.4365C59.0636 60.8219 59.3354 60.2452 59.7214 59.7472L59.9677 59.4307C60.3442 58.9449 60.8237 58.5486 61.3716 58.2703C61.9195 57.992 62.5223 57.8385 63.1367 57.8209C63.751 57.8033 64.3616 57.922 64.9245 58.1686C65.4875 58.4151 65.9888 58.7833 66.3925 59.2467Z" fill="#E1A126"/>
<path d="M126.455 72.5731L135.186 67.7824C139.668 65.3234 142.311 61.0797 139.745 56.5281C139.368 55.8603 135.913 51.2574 135.208 50.6307C130.474 46.5803 126.973 48.7677 122.911 52.5567C122.518 52.9222 122.157 53.3201 121.828 53.7456L116.674 59.9777" fill="#F3B438"/>
<path d="M121.3 50.8241C123.983 48.3217 125.966 46.9474 128.215 46.3617C131.108 45.6086 133.942 46.4272 136.752 48.8301C137.631 49.61 141.246 54.3597 141.812 55.3638C144.938 60.9068 142.3 66.5817 136.33 69.8577L127.599 74.6484C127.326 74.8039 127.025 74.9035 126.713 74.9414C126.401 74.9793 126.085 74.9547 125.782 74.8692C125.48 74.7837 125.198 74.6388 124.952 74.4431C124.706 74.2474 124.502 74.0048 124.351 73.7294C124.2 73.4539 124.105 73.1511 124.072 72.8387C124.039 72.5262 124.069 72.2104 124.159 71.9095C124.249 71.6086 124.399 71.3287 124.598 71.086C124.798 70.8434 125.044 70.6429 125.321 70.4963L134.052 65.7055C137.947 63.5686 139.327 60.5982 137.687 57.6901C137.581 57.503 136.664 56.2376 135.72 54.9967C134.713 53.6722 133.791 52.5339 133.64 52.4005C130.651 49.8436 128.771 50.3331 124.53 54.2871C124.232 54.5648 123.958 54.8665 123.71 55.1893L123.659 55.2533L118.504 61.4855C118.307 61.7292 118.063 61.9314 117.788 62.0805C117.512 62.2295 117.21 62.3224 116.898 62.3537C116.586 62.385 116.271 62.3542 115.972 62.263C115.672 62.1717 115.393 62.0219 115.152 61.8222C114.91 61.6225 114.711 61.3769 114.565 61.0996C114.419 60.8223 114.33 60.5188 114.302 60.2067C114.275 59.8946 114.309 59.5801 114.404 59.2815C114.499 58.9828 114.652 58.7059 114.854 58.4669L119.984 52.2647C120.384 51.7502 120.824 51.2685 121.3 50.8241Z" fill="#524F75"/>
<path d="M124.767 57.634L123.549 58.9681C122.9 59.6786 122.517 60.5912 122.463 61.5516C122.41 62.512 122.689 63.4615 123.255 64.2396C123.812 65.006 124.625 65.5472 125.547 65.7646C126.469 65.9821 127.439 65.8614 128.279 65.4245L129.831 64.6185C130.398 64.3239 130.895 63.9104 131.288 63.4063C131.681 62.9022 131.961 62.3193 132.108 61.6974C132.255 61.0754 132.266 60.4291 132.141 59.8024C132.016 59.1757 131.757 58.5834 131.382 58.0658L131.337 58.0051C130.677 57.0935 129.682 56.4815 128.57 56.3038C127.459 56.126 126.322 56.3969 125.411 57.057C125.177 57.2267 124.962 57.4201 124.767 57.634Z" fill="#E1A126"/>
<path d="M102.196 92.9637C102.196 94.6075 102.52 96.2353 103.149 97.7541C103.778 99.2729 104.699 100.653 105.862 101.815C107.024 102.978 108.404 103.9 109.923 104.529C111.441 105.158 113.069 105.482 114.713 105.482C116.357 105.482 117.985 105.158 119.503 104.529C121.022 103.9 122.402 102.978 123.564 101.815C124.726 100.653 125.648 99.2729 126.277 97.7541C126.906 96.2353 127.23 94.6075 127.229 92.9637C127.23 91.3198 126.906 89.692 126.277 88.1732C125.648 86.6544 124.726 85.2744 123.564 84.1119C122.402 82.9495 121.022 82.0273 119.503 81.3982C117.985 80.7691 116.357 80.4453 114.713 80.4453C113.069 80.4453 111.441 80.7691 109.923 81.3982C108.404 82.0273 107.024 82.9495 105.862 84.1119C104.699 85.2744 103.778 86.6544 103.149 88.1732C102.52 89.692 102.196 91.3198 102.196 92.9637Z" fill="white"/>
<path d="M114.713 107.847C106.491 107.847 99.826 101.184 99.826 92.9629C99.826 84.743 106.491 78.0791 114.713 78.0791C122.934 78.0791 129.599 84.743 129.599 92.9629C129.6 101.184 122.934 107.847 114.713 107.847ZM114.713 103.111C120.319 103.111 124.863 98.5675 124.863 92.9629C124.864 87.359 120.319 82.8153 114.713 82.8153C109.107 82.8153 104.562 87.359 104.562 92.9629C104.562 98.5683 109.107 103.111 114.713 103.111Z" fill="#524F75"/>
<path d="M106.749 96.9334C107.285 97.5549 107.999 97.9974 108.794 98.2016C109.589 98.4058 110.428 98.3619 111.197 98.0758C111.967 97.7897 112.631 97.2751 113.099 96.6011C113.568 95.927 113.819 95.1258 113.819 94.3048C113.83 93.2375 113.417 92.2096 112.67 91.4472C111.923 90.6848 110.903 90.2504 109.836 90.2395C108.769 90.2286 107.741 90.6421 106.979 91.3891C106.216 92.1361 105.782 93.1554 105.771 94.2227L108.755 94.6561L106.749 96.9334Z" fill="#232323"/>
<path d="M68.2538 92.7316C68.2538 96.4083 69.7144 99.9345 72.3143 102.534C74.9141 105.134 78.4402 106.595 82.117 106.595C85.7937 106.595 89.3199 105.134 91.9197 102.534C94.5195 99.9345 95.9801 96.4083 95.9801 92.7316C95.9801 89.0548 94.5195 85.5287 91.9197 82.9289C89.3199 80.329 85.7937 78.8684 82.117 78.8684C78.4402 78.8684 74.9141 80.329 72.3143 82.9289C69.7144 85.5287 68.2538 89.0548 68.2538 92.7316Z" fill="white"/>
<path d="M82.1169 108.964C73.1511 108.964 65.8825 101.696 65.8825 92.7315C65.8825 83.7673 73.1511 76.5003 82.1169 76.5003C91.0828 76.5003 98.3506 83.7673 98.3506 92.7315C98.3506 101.696 91.0828 108.964 82.1169 108.964ZM82.1169 104.227C88.4667 104.227 93.6143 99.0805 93.6143 92.7323C93.6143 86.3833 88.4667 81.2365 82.1169 81.2365C75.7664 81.2365 70.6188 86.3833 70.6188 92.7315C70.6188 99.0798 75.7664 104.227 82.1169 104.227Z" fill="#524F75"/>
<path d="M83.1803 97.782C83.8488 98.5564 84.7673 99.0723 85.7765 99.2401C86.7856 99.4079 87.8217 99.2171 88.7048 98.7008C89.5879 98.1845 90.2624 97.3752 90.6112 96.4135C90.96 95.4518 90.961 94.3983 90.6141 93.4359C90.2672 92.4735 89.5943 91.663 88.7121 91.1449C87.83 90.6269 86.7943 90.4341 85.7849 90.6C84.7754 90.7658 83.8559 91.2799 83.1859 92.053C82.5159 92.8261 82.1377 93.8093 82.117 94.8321L85.363 95.3042L83.1803 97.782Z" fill="#232323"/>
<path d="M68.9912 110.562C50.6909 104.542 39.5922 101.372 35.3122 100.981C34.9993 100.947 34.6826 100.975 34.3807 101.064C34.0788 101.153 33.7977 101.302 33.5538 101.501C33.31 101.7 33.1083 101.946 32.9605 102.223C32.8127 102.501 32.7218 102.806 32.6932 103.12C32.6645 103.433 32.6987 103.749 32.7936 104.049C32.8885 104.349 33.0424 104.628 33.2461 104.868C33.4498 105.108 33.6994 105.305 33.9801 105.447C34.2609 105.589 34.5672 105.675 34.8812 105.697C38.6418 106.041 49.6466 109.185 67.5103 115.061C67.8057 115.158 68.1173 115.196 68.4275 115.173C68.7376 115.15 69.0401 115.066 69.3177 114.926C69.5953 114.785 69.8426 114.592 70.0455 114.356C70.2484 114.121 70.4029 113.847 70.5001 113.552C70.5973 113.257 70.6354 112.945 70.6122 112.635C70.589 112.325 70.505 112.022 70.3648 111.745C70.2247 111.467 70.0313 111.22 69.7956 111.017C69.5599 110.814 69.2866 110.659 68.9912 110.562ZM126.714 110.562C145.015 104.542 156.112 101.371 160.393 100.981C161.012 100.936 161.623 101.136 162.096 101.537C162.569 101.939 162.865 102.509 162.922 103.127C162.978 103.745 162.79 104.36 162.398 104.84C162.006 105.321 161.44 105.628 160.824 105.696C157.063 106.041 146.059 109.184 128.194 115.06C127.899 115.157 127.587 115.195 127.277 115.172C126.967 115.149 126.665 115.065 126.387 114.925C125.827 114.642 125.401 114.148 125.205 113.551C125.009 112.955 125.058 112.305 125.341 111.744C125.623 111.184 126.118 110.758 126.714 110.562ZM161.242 120.748C161.441 120.728 161.582 120.712 161.684 120.698C161.74 120.69 161.74 120.69 161.826 120.675C161.923 120.664 161.923 120.664 162.402 120.493C162.653 120.382 162.653 120.382 163.188 119.91C163.536 119.473 163.536 119.473 163.766 118.616C163.727 117.614 163.727 117.614 163.305 116.916C162.537 116.209 162.537 116.209 162.185 116.101C161.94 116.029 161.94 116.029 161.81 116.005C161.516 115.969 161.516 115.969 161.429 115.969C161.25 115.966 160.953 115.981 160.348 116.018C159.314 116.081 157.433 116.209 154.696 116.403C149.235 116.789 140.366 117.436 128.085 118.344C127.775 118.367 127.472 118.451 127.195 118.591C126.917 118.73 126.669 118.924 126.466 119.159C126.263 119.395 126.109 119.668 126.011 119.963C125.914 120.259 125.875 120.57 125.898 120.881C125.921 121.191 126.005 121.493 126.145 121.771C126.285 122.049 126.478 122.296 126.714 122.499C126.949 122.702 127.222 122.857 127.518 122.955C127.813 123.052 128.125 123.09 128.435 123.068C137.299 122.408 146.164 121.762 155.03 121.127C157.751 120.935 159.621 120.808 160.636 120.746C160.885 120.763 161.062 120.766 161.242 120.748ZM161.348 120.706C161.289 120.706 161.289 120.706 161.011 120.673C160.883 120.65 160.883 120.65 160.641 120.579C160.291 120.47 160.291 120.47 159.522 119.766C159.101 119.068 159.101 119.068 159.062 118.066C159.292 117.209 159.292 117.209 159.64 116.773C160.174 116.301 160.174 116.301 160.423 116.191C160.891 116.025 160.891 116.025 160.965 116.018L161.029 116.007C161.006 116.011 160.911 116.021 160.77 116.036C160.145 116.098 159.571 116.407 159.173 116.893C158.775 117.379 158.586 118.003 158.648 118.628C158.702 119.162 158.935 119.662 159.31 120.046C159.685 120.43 160.179 120.675 160.711 120.742C161.089 120.719 161.354 120.706 161.348 120.706ZM96.6685 138.072V151.492C96.6685 152.12 96.918 152.722 97.3621 153.166C97.8062 153.61 98.4086 153.86 99.0367 153.86C99.6647 153.86 100.267 153.61 100.711 153.166C101.155 152.722 101.405 152.12 101.405 151.492V138.072C101.405 137.444 101.155 136.842 100.711 136.398C100.267 135.953 99.6647 135.704 99.0367 135.704C98.4086 135.704 97.8062 135.953 97.3621 136.398C96.918 136.842 96.6685 137.444 96.6685 138.072ZM39.0444 122.353C56.305 122.344 66.8322 122.322 70.6418 122.284C71.2699 122.278 71.8697 122.023 72.3094 121.574C72.7491 121.126 72.9925 120.521 72.9862 119.893C72.98 119.265 72.7244 118.665 72.2759 118.225C71.8273 117.785 71.2225 117.542 70.5944 117.548C66.8062 117.586 56.2837 117.609 39.0412 117.617C38.7302 117.617 38.4223 117.678 38.1351 117.798C37.8479 117.917 37.5869 118.092 37.3672 118.312C37.1474 118.532 36.9731 118.793 36.8543 119.08C36.7355 119.368 36.6744 119.676 36.6747 119.987C36.6749 120.298 36.7363 120.605 36.8555 120.893C36.9747 121.18 37.1493 121.441 37.3694 121.661C37.5894 121.88 37.8506 122.055 38.138 122.173C38.4254 122.292 38.7334 122.353 39.0444 122.353Z" fill="#524F75"/>
</g>
<defs>
<clipPath id="clip0_1_207">
<rect width="250" height="250" rx="125" fill="white"/>
</clipPath>
</defs>
</svg>
